%TF.GenerationSoftware,KiCad,Pcbnew,(5.1.6)-1*%
%TF.CreationDate,2021-05-02T16:05:47+02:00*%
%TF.ProjectId,nv-fram,6e762d66-7261-46d2-9e6b-696361645f70,rev?*%
%TF.SameCoordinates,Original*%
%TF.FileFunction,Copper,L2,Bot*%
%TF.FilePolarity,Positive*%
%FSLAX46Y46*%
G04 Gerber Fmt 4.6, Leading zero omitted, Abs format (unit mm)*
G04 Created by KiCad (PCBNEW (5.1.6)-1) date 2021-05-02 16:05:47*
%MOMM*%
%LPD*%
G01*
G04 APERTURE LIST*
%TA.AperFunction,ComponentPad*%
%ADD10O,1.600000X1.600000*%
%TD*%
%TA.AperFunction,ComponentPad*%
%ADD11R,1.600000X1.600000*%
%TD*%
%TA.AperFunction,ViaPad*%
%ADD12C,0.800000*%
%TD*%
%TA.AperFunction,Conductor*%
%ADD13C,0.500000*%
%TD*%
%TA.AperFunction,Conductor*%
%ADD14C,0.254000*%
%TD*%
G04 APERTURE END LIST*
D10*
%TO.P,J1,28*%
%TO.N,Net-(J1-Pad28)*%
X152400000Y-72390000D03*
%TO.P,J1,14*%
%TO.N,GND*%
X137160000Y-105410000D03*
%TO.P,J1,27*%
%TO.N,Net-(J1-Pad27)*%
X152400000Y-74930000D03*
%TO.P,J1,13*%
%TO.N,Net-(J1-Pad13)*%
X137160000Y-102870000D03*
%TO.P,J1,26*%
%TO.N,Net-(J1-Pad26)*%
X152400000Y-77470000D03*
%TO.P,J1,12*%
%TO.N,Net-(J1-Pad12)*%
X137160000Y-100330000D03*
%TO.P,J1,25*%
%TO.N,Net-(J1-Pad25)*%
X152400000Y-80010000D03*
%TO.P,J1,11*%
%TO.N,Net-(J1-Pad11)*%
X137160000Y-97790000D03*
%TO.P,J1,24*%
%TO.N,Net-(J1-Pad24)*%
X152400000Y-82550000D03*
%TO.P,J1,10*%
%TO.N,Net-(J1-Pad10)*%
X137160000Y-95250000D03*
%TO.P,J1,23*%
%TO.N,Net-(J1-Pad23)*%
X152400000Y-85090000D03*
%TO.P,J1,9*%
%TO.N,Net-(J1-Pad9)*%
X137160000Y-92710000D03*
%TO.P,J1,22*%
%TO.N,Net-(J1-Pad22)*%
X152400000Y-87630000D03*
%TO.P,J1,8*%
%TO.N,Net-(J1-Pad8)*%
X137160000Y-90170000D03*
%TO.P,J1,21*%
%TO.N,Net-(J1-Pad21)*%
X152400000Y-90170000D03*
%TO.P,J1,7*%
%TO.N,Net-(J1-Pad7)*%
X137160000Y-87630000D03*
%TO.P,J1,20*%
%TO.N,Net-(J1-Pad20)*%
X152400000Y-92710000D03*
%TO.P,J1,6*%
%TO.N,Net-(J1-Pad6)*%
X137160000Y-85090000D03*
%TO.P,J1,19*%
%TO.N,Net-(J1-Pad19)*%
X152400000Y-95250000D03*
%TO.P,J1,5*%
%TO.N,Net-(J1-Pad5)*%
X137160000Y-82550000D03*
%TO.P,J1,18*%
%TO.N,Net-(J1-Pad18)*%
X152400000Y-97790000D03*
%TO.P,J1,4*%
%TO.N,Net-(J1-Pad4)*%
X137160000Y-80010000D03*
%TO.P,J1,17*%
%TO.N,Net-(J1-Pad17)*%
X152400000Y-100330000D03*
%TO.P,J1,3*%
%TO.N,Net-(J1-Pad3)*%
X137160000Y-77470000D03*
%TO.P,J1,16*%
%TO.N,Net-(J1-Pad16)*%
X152400000Y-102870000D03*
%TO.P,J1,2*%
%TO.N,Net-(J1-Pad2)*%
X137160000Y-74930000D03*
%TO.P,J1,15*%
%TO.N,Net-(J1-Pad15)*%
X152400000Y-105410000D03*
D11*
%TO.P,J1,1*%
%TO.N,Net-(J1-Pad1)*%
X137160000Y-72390000D03*
%TD*%
D12*
%TO.N,Net-(J1-Pad26)*%
X147574000Y-83058000D03*
%TO.N,Net-(J1-Pad12)*%
X141986000Y-94742000D03*
%TO.N,Net-(J1-Pad25)*%
X147574000Y-84328000D03*
%TO.N,Net-(J1-Pad11)*%
X141986000Y-93472000D03*
%TO.N,Net-(J1-Pad18)*%
X147574000Y-93472000D03*
%TO.N,Net-(J1-Pad4)*%
X141986000Y-84328000D03*
%TO.N,Net-(J1-Pad17)*%
X147574000Y-94742000D03*
%TO.N,Net-(J1-Pad3)*%
X141986000Y-83058000D03*
%TD*%
D13*
%TO.N,Net-(J1-Pad26)*%
X152400000Y-77470000D02*
X147574000Y-82296000D01*
X147574000Y-82296000D02*
X147574000Y-83058000D01*
%TO.N,Net-(J1-Pad12)*%
X137160000Y-100330000D02*
X141986000Y-95504000D01*
X141986000Y-95504000D02*
X141986000Y-94742000D01*
%TO.N,Net-(J1-Pad25)*%
X152400000Y-80010000D02*
X148082000Y-84328000D01*
X148082000Y-84328000D02*
X147574000Y-84328000D01*
%TO.N,Net-(J1-Pad11)*%
X137160000Y-97790000D02*
X141478000Y-93472000D01*
X141478000Y-93472000D02*
X141986000Y-93472000D01*
%TO.N,Net-(J1-Pad18)*%
X152400000Y-97790000D02*
X148082000Y-93472000D01*
X148082000Y-93472000D02*
X147574000Y-93472000D01*
%TO.N,Net-(J1-Pad4)*%
X137160000Y-80010000D02*
X141478000Y-84328000D01*
X141478000Y-84328000D02*
X141986000Y-84328000D01*
%TO.N,Net-(J1-Pad17)*%
X152400000Y-100330000D02*
X147574000Y-95504000D01*
X147574000Y-95504000D02*
X147574000Y-94742000D01*
%TO.N,Net-(J1-Pad3)*%
X137160000Y-77470000D02*
X141986000Y-82296000D01*
X141986000Y-82296000D02*
X141986000Y-83058000D01*
%TD*%
D14*
%TO.N,GND*%
G36*
X151285363Y-71475241D02*
G01*
X151128320Y-71710273D01*
X151020147Y-71971426D01*
X150965000Y-72248665D01*
X150965000Y-72531335D01*
X151020147Y-72808574D01*
X151128320Y-73069727D01*
X151285363Y-73304759D01*
X151485241Y-73504637D01*
X151717759Y-73660000D01*
X151485241Y-73815363D01*
X151285363Y-74015241D01*
X151128320Y-74250273D01*
X151020147Y-74511426D01*
X150965000Y-74788665D01*
X150965000Y-75071335D01*
X151020147Y-75348574D01*
X151128320Y-75609727D01*
X151285363Y-75844759D01*
X151485241Y-76044637D01*
X151717759Y-76200000D01*
X151485241Y-76355363D01*
X151285363Y-76555241D01*
X151128320Y-76790273D01*
X151020147Y-77051426D01*
X150965000Y-77328665D01*
X150965000Y-77611335D01*
X150971983Y-77646439D01*
X146978956Y-81639466D01*
X146945183Y-81667183D01*
X146834589Y-81801942D01*
X146752411Y-81955688D01*
X146701805Y-82122511D01*
X146689000Y-82252524D01*
X146689000Y-82252531D01*
X146684719Y-82296000D01*
X146689000Y-82339469D01*
X146689000Y-82519546D01*
X146656795Y-82567744D01*
X146578774Y-82756102D01*
X146539000Y-82956061D01*
X146539000Y-83159939D01*
X146578774Y-83359898D01*
X146656795Y-83548256D01*
X146753510Y-83693000D01*
X146656795Y-83837744D01*
X146578774Y-84026102D01*
X146539000Y-84226061D01*
X146539000Y-84429939D01*
X146578774Y-84629898D01*
X146656795Y-84818256D01*
X146770063Y-84987774D01*
X146914226Y-85131937D01*
X147083744Y-85245205D01*
X147272102Y-85323226D01*
X147472061Y-85363000D01*
X147675939Y-85363000D01*
X147875898Y-85323226D01*
X148064256Y-85245205D01*
X148110204Y-85214503D01*
X148125469Y-85213000D01*
X148125477Y-85213000D01*
X148255490Y-85200195D01*
X148422313Y-85149589D01*
X148576059Y-85067411D01*
X148710817Y-84956817D01*
X148738534Y-84923044D01*
X150965870Y-82695709D01*
X151020147Y-82968574D01*
X151128320Y-83229727D01*
X151285363Y-83464759D01*
X151485241Y-83664637D01*
X151717759Y-83820000D01*
X151485241Y-83975363D01*
X151285363Y-84175241D01*
X151128320Y-84410273D01*
X151020147Y-84671426D01*
X150965000Y-84948665D01*
X150965000Y-85231335D01*
X151020147Y-85508574D01*
X151128320Y-85769727D01*
X151285363Y-86004759D01*
X151485241Y-86204637D01*
X151717759Y-86360000D01*
X151485241Y-86515363D01*
X151285363Y-86715241D01*
X151128320Y-86950273D01*
X151020147Y-87211426D01*
X150965000Y-87488665D01*
X150965000Y-87771335D01*
X151020147Y-88048574D01*
X151128320Y-88309727D01*
X151285363Y-88544759D01*
X151485241Y-88744637D01*
X151717759Y-88900000D01*
X151485241Y-89055363D01*
X151285363Y-89255241D01*
X151128320Y-89490273D01*
X151020147Y-89751426D01*
X150965000Y-90028665D01*
X150965000Y-90311335D01*
X151020147Y-90588574D01*
X151128320Y-90849727D01*
X151285363Y-91084759D01*
X151485241Y-91284637D01*
X151717759Y-91440000D01*
X151485241Y-91595363D01*
X151285363Y-91795241D01*
X151128320Y-92030273D01*
X151020147Y-92291426D01*
X150965000Y-92568665D01*
X150965000Y-92851335D01*
X151020147Y-93128574D01*
X151128320Y-93389727D01*
X151285363Y-93624759D01*
X151485241Y-93824637D01*
X151717759Y-93980000D01*
X151485241Y-94135363D01*
X151285363Y-94335241D01*
X151128320Y-94570273D01*
X151020147Y-94831426D01*
X150965870Y-95104291D01*
X148738534Y-92876956D01*
X148710817Y-92843183D01*
X148576059Y-92732589D01*
X148422313Y-92650411D01*
X148255490Y-92599805D01*
X148125477Y-92587000D01*
X148125469Y-92587000D01*
X148110204Y-92585497D01*
X148064256Y-92554795D01*
X147875898Y-92476774D01*
X147675939Y-92437000D01*
X147472061Y-92437000D01*
X147272102Y-92476774D01*
X147083744Y-92554795D01*
X146914226Y-92668063D01*
X146770063Y-92812226D01*
X146656795Y-92981744D01*
X146578774Y-93170102D01*
X146539000Y-93370061D01*
X146539000Y-93573939D01*
X146578774Y-93773898D01*
X146656795Y-93962256D01*
X146753510Y-94107000D01*
X146656795Y-94251744D01*
X146578774Y-94440102D01*
X146539000Y-94640061D01*
X146539000Y-94843939D01*
X146578774Y-95043898D01*
X146656795Y-95232256D01*
X146689000Y-95280454D01*
X146689000Y-95460531D01*
X146684719Y-95504000D01*
X146689000Y-95547469D01*
X146689000Y-95547476D01*
X146701805Y-95677489D01*
X146752411Y-95844312D01*
X146834589Y-95998058D01*
X146945183Y-96132817D01*
X146978956Y-96160534D01*
X150971983Y-100153561D01*
X150965000Y-100188665D01*
X150965000Y-100471335D01*
X151020147Y-100748574D01*
X151128320Y-101009727D01*
X151285363Y-101244759D01*
X151485241Y-101444637D01*
X151717759Y-101600000D01*
X151485241Y-101755363D01*
X151285363Y-101955241D01*
X151128320Y-102190273D01*
X151020147Y-102451426D01*
X150965000Y-102728665D01*
X150965000Y-103011335D01*
X151020147Y-103288574D01*
X151128320Y-103549727D01*
X151285363Y-103784759D01*
X151485241Y-103984637D01*
X151717759Y-104140000D01*
X151485241Y-104295363D01*
X151285363Y-104495241D01*
X151128320Y-104730273D01*
X151020147Y-104991426D01*
X150965000Y-105268665D01*
X150965000Y-105551335D01*
X151020147Y-105828574D01*
X151128320Y-106089727D01*
X151285363Y-106324759D01*
X151361604Y-106401000D01*
X138193099Y-106401000D01*
X138223519Y-106373414D01*
X138391037Y-106147420D01*
X138511246Y-105893087D01*
X138551904Y-105759039D01*
X138429915Y-105537000D01*
X137287000Y-105537000D01*
X137287000Y-105557000D01*
X137033000Y-105557000D01*
X137033000Y-105537000D01*
X137013000Y-105537000D01*
X137013000Y-105283000D01*
X137033000Y-105283000D01*
X137033000Y-105263000D01*
X137287000Y-105263000D01*
X137287000Y-105283000D01*
X138429915Y-105283000D01*
X138551904Y-105060961D01*
X138511246Y-104926913D01*
X138391037Y-104672580D01*
X138223519Y-104446586D01*
X138015131Y-104257615D01*
X137829135Y-104146067D01*
X137839727Y-104141680D01*
X138074759Y-103984637D01*
X138274637Y-103784759D01*
X138431680Y-103549727D01*
X138539853Y-103288574D01*
X138595000Y-103011335D01*
X138595000Y-102728665D01*
X138539853Y-102451426D01*
X138431680Y-102190273D01*
X138274637Y-101955241D01*
X138074759Y-101755363D01*
X137842241Y-101600000D01*
X138074759Y-101444637D01*
X138274637Y-101244759D01*
X138431680Y-101009727D01*
X138539853Y-100748574D01*
X138595000Y-100471335D01*
X138595000Y-100188665D01*
X138588017Y-100153561D01*
X142581051Y-96160528D01*
X142614817Y-96132817D01*
X142642533Y-96099046D01*
X142725411Y-95998059D01*
X142807589Y-95844314D01*
X142858195Y-95677490D01*
X142859996Y-95659205D01*
X142871000Y-95547477D01*
X142871000Y-95547469D01*
X142875281Y-95504000D01*
X142871000Y-95460531D01*
X142871000Y-95280454D01*
X142903205Y-95232256D01*
X142981226Y-95043898D01*
X143021000Y-94843939D01*
X143021000Y-94640061D01*
X142981226Y-94440102D01*
X142903205Y-94251744D01*
X142806490Y-94107000D01*
X142903205Y-93962256D01*
X142981226Y-93773898D01*
X143021000Y-93573939D01*
X143021000Y-93370061D01*
X142981226Y-93170102D01*
X142903205Y-92981744D01*
X142789937Y-92812226D01*
X142645774Y-92668063D01*
X142476256Y-92554795D01*
X142287898Y-92476774D01*
X142087939Y-92437000D01*
X141884061Y-92437000D01*
X141684102Y-92476774D01*
X141495744Y-92554795D01*
X141449795Y-92585497D01*
X141434533Y-92587000D01*
X141434523Y-92587000D01*
X141304510Y-92599805D01*
X141137687Y-92650411D01*
X140983941Y-92732589D01*
X140983939Y-92732590D01*
X140983940Y-92732590D01*
X140882953Y-92815468D01*
X140882951Y-92815470D01*
X140849183Y-92843183D01*
X140821470Y-92876951D01*
X138594130Y-95104291D01*
X138539853Y-94831426D01*
X138431680Y-94570273D01*
X138274637Y-94335241D01*
X138074759Y-94135363D01*
X137842241Y-93980000D01*
X138074759Y-93824637D01*
X138274637Y-93624759D01*
X138431680Y-93389727D01*
X138539853Y-93128574D01*
X138595000Y-92851335D01*
X138595000Y-92568665D01*
X138539853Y-92291426D01*
X138431680Y-92030273D01*
X138274637Y-91795241D01*
X138074759Y-91595363D01*
X137842241Y-91440000D01*
X138074759Y-91284637D01*
X138274637Y-91084759D01*
X138431680Y-90849727D01*
X138539853Y-90588574D01*
X138595000Y-90311335D01*
X138595000Y-90028665D01*
X138539853Y-89751426D01*
X138431680Y-89490273D01*
X138274637Y-89255241D01*
X138074759Y-89055363D01*
X137842241Y-88900000D01*
X138074759Y-88744637D01*
X138274637Y-88544759D01*
X138431680Y-88309727D01*
X138539853Y-88048574D01*
X138595000Y-87771335D01*
X138595000Y-87488665D01*
X138539853Y-87211426D01*
X138431680Y-86950273D01*
X138274637Y-86715241D01*
X138074759Y-86515363D01*
X137842241Y-86360000D01*
X138074759Y-86204637D01*
X138274637Y-86004759D01*
X138431680Y-85769727D01*
X138539853Y-85508574D01*
X138595000Y-85231335D01*
X138595000Y-84948665D01*
X138539853Y-84671426D01*
X138431680Y-84410273D01*
X138274637Y-84175241D01*
X138074759Y-83975363D01*
X137842241Y-83820000D01*
X138074759Y-83664637D01*
X138274637Y-83464759D01*
X138431680Y-83229727D01*
X138539853Y-82968574D01*
X138594130Y-82695709D01*
X140821470Y-84923049D01*
X140849183Y-84956817D01*
X140882951Y-84984530D01*
X140882953Y-84984532D01*
X140954452Y-85043210D01*
X140983941Y-85067411D01*
X141137687Y-85149589D01*
X141304510Y-85200195D01*
X141434523Y-85213000D01*
X141434533Y-85213000D01*
X141449795Y-85214503D01*
X141495744Y-85245205D01*
X141684102Y-85323226D01*
X141884061Y-85363000D01*
X142087939Y-85363000D01*
X142287898Y-85323226D01*
X142476256Y-85245205D01*
X142645774Y-85131937D01*
X142789937Y-84987774D01*
X142903205Y-84818256D01*
X142981226Y-84629898D01*
X143021000Y-84429939D01*
X143021000Y-84226061D01*
X142981226Y-84026102D01*
X142903205Y-83837744D01*
X142806490Y-83693000D01*
X142903205Y-83548256D01*
X142981226Y-83359898D01*
X143021000Y-83159939D01*
X143021000Y-82956061D01*
X142981226Y-82756102D01*
X142903205Y-82567744D01*
X142871000Y-82519546D01*
X142871000Y-82339469D01*
X142875281Y-82296000D01*
X142871000Y-82252531D01*
X142871000Y-82252523D01*
X142858195Y-82122510D01*
X142840074Y-82062774D01*
X142807589Y-81955686D01*
X142725411Y-81801941D01*
X142642532Y-81700953D01*
X142642530Y-81700951D01*
X142614817Y-81667183D01*
X142581051Y-81639472D01*
X138588017Y-77646439D01*
X138595000Y-77611335D01*
X138595000Y-77328665D01*
X138539853Y-77051426D01*
X138431680Y-76790273D01*
X138274637Y-76555241D01*
X138074759Y-76355363D01*
X137842241Y-76200000D01*
X138074759Y-76044637D01*
X138274637Y-75844759D01*
X138431680Y-75609727D01*
X138539853Y-75348574D01*
X138595000Y-75071335D01*
X138595000Y-74788665D01*
X138539853Y-74511426D01*
X138431680Y-74250273D01*
X138274637Y-74015241D01*
X138076039Y-73816643D01*
X138084482Y-73815812D01*
X138204180Y-73779502D01*
X138314494Y-73720537D01*
X138411185Y-73641185D01*
X138490537Y-73544494D01*
X138549502Y-73434180D01*
X138585812Y-73314482D01*
X138598072Y-73190000D01*
X138598072Y-71590000D01*
X138585812Y-71465518D01*
X138565634Y-71399000D01*
X151361604Y-71399000D01*
X151285363Y-71475241D01*
G37*
X151285363Y-71475241D02*
X151128320Y-71710273D01*
X151020147Y-71971426D01*
X150965000Y-72248665D01*
X150965000Y-72531335D01*
X151020147Y-72808574D01*
X151128320Y-73069727D01*
X151285363Y-73304759D01*
X151485241Y-73504637D01*
X151717759Y-73660000D01*
X151485241Y-73815363D01*
X151285363Y-74015241D01*
X151128320Y-74250273D01*
X151020147Y-74511426D01*
X150965000Y-74788665D01*
X150965000Y-75071335D01*
X151020147Y-75348574D01*
X151128320Y-75609727D01*
X151285363Y-75844759D01*
X151485241Y-76044637D01*
X151717759Y-76200000D01*
X151485241Y-76355363D01*
X151285363Y-76555241D01*
X151128320Y-76790273D01*
X151020147Y-77051426D01*
X150965000Y-77328665D01*
X150965000Y-77611335D01*
X150971983Y-77646439D01*
X146978956Y-81639466D01*
X146945183Y-81667183D01*
X146834589Y-81801942D01*
X146752411Y-81955688D01*
X146701805Y-82122511D01*
X146689000Y-82252524D01*
X146689000Y-82252531D01*
X146684719Y-82296000D01*
X146689000Y-82339469D01*
X146689000Y-82519546D01*
X146656795Y-82567744D01*
X146578774Y-82756102D01*
X146539000Y-82956061D01*
X146539000Y-83159939D01*
X146578774Y-83359898D01*
X146656795Y-83548256D01*
X146753510Y-83693000D01*
X146656795Y-83837744D01*
X146578774Y-84026102D01*
X146539000Y-84226061D01*
X146539000Y-84429939D01*
X146578774Y-84629898D01*
X146656795Y-84818256D01*
X146770063Y-84987774D01*
X146914226Y-85131937D01*
X147083744Y-85245205D01*
X147272102Y-85323226D01*
X147472061Y-85363000D01*
X147675939Y-85363000D01*
X147875898Y-85323226D01*
X148064256Y-85245205D01*
X148110204Y-85214503D01*
X148125469Y-85213000D01*
X148125477Y-85213000D01*
X148255490Y-85200195D01*
X148422313Y-85149589D01*
X148576059Y-85067411D01*
X148710817Y-84956817D01*
X148738534Y-84923044D01*
X150965870Y-82695709D01*
X151020147Y-82968574D01*
X151128320Y-83229727D01*
X151285363Y-83464759D01*
X151485241Y-83664637D01*
X151717759Y-83820000D01*
X151485241Y-83975363D01*
X151285363Y-84175241D01*
X151128320Y-84410273D01*
X151020147Y-84671426D01*
X150965000Y-84948665D01*
X150965000Y-85231335D01*
X151020147Y-85508574D01*
X151128320Y-85769727D01*
X151285363Y-86004759D01*
X151485241Y-86204637D01*
X151717759Y-86360000D01*
X151485241Y-86515363D01*
X151285363Y-86715241D01*
X151128320Y-86950273D01*
X151020147Y-87211426D01*
X150965000Y-87488665D01*
X150965000Y-87771335D01*
X151020147Y-88048574D01*
X151128320Y-88309727D01*
X151285363Y-88544759D01*
X151485241Y-88744637D01*
X151717759Y-88900000D01*
X151485241Y-89055363D01*
X151285363Y-89255241D01*
X151128320Y-89490273D01*
X151020147Y-89751426D01*
X150965000Y-90028665D01*
X150965000Y-90311335D01*
X151020147Y-90588574D01*
X151128320Y-90849727D01*
X151285363Y-91084759D01*
X151485241Y-91284637D01*
X151717759Y-91440000D01*
X151485241Y-91595363D01*
X151285363Y-91795241D01*
X151128320Y-92030273D01*
X151020147Y-92291426D01*
X150965000Y-92568665D01*
X150965000Y-92851335D01*
X151020147Y-93128574D01*
X151128320Y-93389727D01*
X151285363Y-93624759D01*
X151485241Y-93824637D01*
X151717759Y-93980000D01*
X151485241Y-94135363D01*
X151285363Y-94335241D01*
X151128320Y-94570273D01*
X151020147Y-94831426D01*
X150965870Y-95104291D01*
X148738534Y-92876956D01*
X148710817Y-92843183D01*
X148576059Y-92732589D01*
X148422313Y-92650411D01*
X148255490Y-92599805D01*
X148125477Y-92587000D01*
X148125469Y-92587000D01*
X148110204Y-92585497D01*
X148064256Y-92554795D01*
X147875898Y-92476774D01*
X147675939Y-92437000D01*
X147472061Y-92437000D01*
X147272102Y-92476774D01*
X147083744Y-92554795D01*
X146914226Y-92668063D01*
X146770063Y-92812226D01*
X146656795Y-92981744D01*
X146578774Y-93170102D01*
X146539000Y-93370061D01*
X146539000Y-93573939D01*
X146578774Y-93773898D01*
X146656795Y-93962256D01*
X146753510Y-94107000D01*
X146656795Y-94251744D01*
X146578774Y-94440102D01*
X146539000Y-94640061D01*
X146539000Y-94843939D01*
X146578774Y-95043898D01*
X146656795Y-95232256D01*
X146689000Y-95280454D01*
X146689000Y-95460531D01*
X146684719Y-95504000D01*
X146689000Y-95547469D01*
X146689000Y-95547476D01*
X146701805Y-95677489D01*
X146752411Y-95844312D01*
X146834589Y-95998058D01*
X146945183Y-96132817D01*
X146978956Y-96160534D01*
X150971983Y-100153561D01*
X150965000Y-100188665D01*
X150965000Y-100471335D01*
X151020147Y-100748574D01*
X151128320Y-101009727D01*
X151285363Y-101244759D01*
X151485241Y-101444637D01*
X151717759Y-101600000D01*
X151485241Y-101755363D01*
X151285363Y-101955241D01*
X151128320Y-102190273D01*
X151020147Y-102451426D01*
X150965000Y-102728665D01*
X150965000Y-103011335D01*
X151020147Y-103288574D01*
X151128320Y-103549727D01*
X151285363Y-103784759D01*
X151485241Y-103984637D01*
X151717759Y-104140000D01*
X151485241Y-104295363D01*
X151285363Y-104495241D01*
X151128320Y-104730273D01*
X151020147Y-104991426D01*
X150965000Y-105268665D01*
X150965000Y-105551335D01*
X151020147Y-105828574D01*
X151128320Y-106089727D01*
X151285363Y-106324759D01*
X151361604Y-106401000D01*
X138193099Y-106401000D01*
X138223519Y-106373414D01*
X138391037Y-106147420D01*
X138511246Y-105893087D01*
X138551904Y-105759039D01*
X138429915Y-105537000D01*
X137287000Y-105537000D01*
X137287000Y-105557000D01*
X137033000Y-105557000D01*
X137033000Y-105537000D01*
X137013000Y-105537000D01*
X137013000Y-105283000D01*
X137033000Y-105283000D01*
X137033000Y-105263000D01*
X137287000Y-105263000D01*
X137287000Y-105283000D01*
X138429915Y-105283000D01*
X138551904Y-105060961D01*
X138511246Y-104926913D01*
X138391037Y-104672580D01*
X138223519Y-104446586D01*
X138015131Y-104257615D01*
X137829135Y-104146067D01*
X137839727Y-104141680D01*
X138074759Y-103984637D01*
X138274637Y-103784759D01*
X138431680Y-103549727D01*
X138539853Y-103288574D01*
X138595000Y-103011335D01*
X138595000Y-102728665D01*
X138539853Y-102451426D01*
X138431680Y-102190273D01*
X138274637Y-101955241D01*
X138074759Y-101755363D01*
X137842241Y-101600000D01*
X138074759Y-101444637D01*
X138274637Y-101244759D01*
X138431680Y-101009727D01*
X138539853Y-100748574D01*
X138595000Y-100471335D01*
X138595000Y-100188665D01*
X138588017Y-100153561D01*
X142581051Y-96160528D01*
X142614817Y-96132817D01*
X142642533Y-96099046D01*
X142725411Y-95998059D01*
X142807589Y-95844314D01*
X142858195Y-95677490D01*
X142859996Y-95659205D01*
X142871000Y-95547477D01*
X142871000Y-95547469D01*
X142875281Y-95504000D01*
X142871000Y-95460531D01*
X142871000Y-95280454D01*
X142903205Y-95232256D01*
X142981226Y-95043898D01*
X143021000Y-94843939D01*
X143021000Y-94640061D01*
X142981226Y-94440102D01*
X142903205Y-94251744D01*
X142806490Y-94107000D01*
X142903205Y-93962256D01*
X142981226Y-93773898D01*
X143021000Y-93573939D01*
X143021000Y-93370061D01*
X142981226Y-93170102D01*
X142903205Y-92981744D01*
X142789937Y-92812226D01*
X142645774Y-92668063D01*
X142476256Y-92554795D01*
X142287898Y-92476774D01*
X142087939Y-92437000D01*
X141884061Y-92437000D01*
X141684102Y-92476774D01*
X141495744Y-92554795D01*
X141449795Y-92585497D01*
X141434533Y-92587000D01*
X141434523Y-92587000D01*
X141304510Y-92599805D01*
X141137687Y-92650411D01*
X140983941Y-92732589D01*
X140983939Y-92732590D01*
X140983940Y-92732590D01*
X140882953Y-92815468D01*
X140882951Y-92815470D01*
X140849183Y-92843183D01*
X140821470Y-92876951D01*
X138594130Y-95104291D01*
X138539853Y-94831426D01*
X138431680Y-94570273D01*
X138274637Y-94335241D01*
X138074759Y-94135363D01*
X137842241Y-93980000D01*
X138074759Y-93824637D01*
X138274637Y-93624759D01*
X138431680Y-93389727D01*
X138539853Y-93128574D01*
X138595000Y-92851335D01*
X138595000Y-92568665D01*
X138539853Y-92291426D01*
X138431680Y-92030273D01*
X138274637Y-91795241D01*
X138074759Y-91595363D01*
X137842241Y-91440000D01*
X138074759Y-91284637D01*
X138274637Y-91084759D01*
X138431680Y-90849727D01*
X138539853Y-90588574D01*
X138595000Y-90311335D01*
X138595000Y-90028665D01*
X138539853Y-89751426D01*
X138431680Y-89490273D01*
X138274637Y-89255241D01*
X138074759Y-89055363D01*
X137842241Y-88900000D01*
X138074759Y-88744637D01*
X138274637Y-88544759D01*
X138431680Y-88309727D01*
X138539853Y-88048574D01*
X138595000Y-87771335D01*
X138595000Y-87488665D01*
X138539853Y-87211426D01*
X138431680Y-86950273D01*
X138274637Y-86715241D01*
X138074759Y-86515363D01*
X137842241Y-86360000D01*
X138074759Y-86204637D01*
X138274637Y-86004759D01*
X138431680Y-85769727D01*
X138539853Y-85508574D01*
X138595000Y-85231335D01*
X138595000Y-84948665D01*
X138539853Y-84671426D01*
X138431680Y-84410273D01*
X138274637Y-84175241D01*
X138074759Y-83975363D01*
X137842241Y-83820000D01*
X138074759Y-83664637D01*
X138274637Y-83464759D01*
X138431680Y-83229727D01*
X138539853Y-82968574D01*
X138594130Y-82695709D01*
X140821470Y-84923049D01*
X140849183Y-84956817D01*
X140882951Y-84984530D01*
X140882953Y-84984532D01*
X140954452Y-85043210D01*
X140983941Y-85067411D01*
X141137687Y-85149589D01*
X141304510Y-85200195D01*
X141434523Y-85213000D01*
X141434533Y-85213000D01*
X141449795Y-85214503D01*
X141495744Y-85245205D01*
X141684102Y-85323226D01*
X141884061Y-85363000D01*
X142087939Y-85363000D01*
X142287898Y-85323226D01*
X142476256Y-85245205D01*
X142645774Y-85131937D01*
X142789937Y-84987774D01*
X142903205Y-84818256D01*
X142981226Y-84629898D01*
X143021000Y-84429939D01*
X143021000Y-84226061D01*
X142981226Y-84026102D01*
X142903205Y-83837744D01*
X142806490Y-83693000D01*
X142903205Y-83548256D01*
X142981226Y-83359898D01*
X143021000Y-83159939D01*
X143021000Y-82956061D01*
X142981226Y-82756102D01*
X142903205Y-82567744D01*
X142871000Y-82519546D01*
X142871000Y-82339469D01*
X142875281Y-82296000D01*
X142871000Y-82252531D01*
X142871000Y-82252523D01*
X142858195Y-82122510D01*
X142840074Y-82062774D01*
X142807589Y-81955686D01*
X142725411Y-81801941D01*
X142642532Y-81700953D01*
X142642530Y-81700951D01*
X142614817Y-81667183D01*
X142581051Y-81639472D01*
X138588017Y-77646439D01*
X138595000Y-77611335D01*
X138595000Y-77328665D01*
X138539853Y-77051426D01*
X138431680Y-76790273D01*
X138274637Y-76555241D01*
X138074759Y-76355363D01*
X137842241Y-76200000D01*
X138074759Y-76044637D01*
X138274637Y-75844759D01*
X138431680Y-75609727D01*
X138539853Y-75348574D01*
X138595000Y-75071335D01*
X138595000Y-74788665D01*
X138539853Y-74511426D01*
X138431680Y-74250273D01*
X138274637Y-74015241D01*
X138076039Y-73816643D01*
X138084482Y-73815812D01*
X138204180Y-73779502D01*
X138314494Y-73720537D01*
X138411185Y-73641185D01*
X138490537Y-73544494D01*
X138549502Y-73434180D01*
X138585812Y-73314482D01*
X138598072Y-73190000D01*
X138598072Y-71590000D01*
X138585812Y-71465518D01*
X138565634Y-71399000D01*
X151361604Y-71399000D01*
X151285363Y-71475241D01*
%TD*%
M02*
