M48
; DRILL file {KiCad (5.1.6)-1} date 05/02/21 16:05:51
; FORMAT={-:-/ absolute / inch / decimal}
; #@! TF.CreationDate,2021-05-02T16:05:51+02:00
; #@! TF.GenerationSoftware,Kicad,Pcbnew,(5.1.6)-1
FMAT,2
INCH
T1C0.0157
T2C0.0315
%
G90
G05
T1
X5.59Y-3.27
X5.59Y-3.32
X5.59Y-3.68
X5.59Y-3.73
X5.81Y-3.27
X5.81Y-3.32
X5.81Y-3.68
X5.81Y-3.73
T2
X5.4Y-2.85
X5.4Y-2.95
X5.4Y-3.05
X5.4Y-3.15
X5.4Y-3.25
X5.4Y-3.35
X5.4Y-3.45
X5.4Y-3.55
X5.4Y-3.65
X5.4Y-3.75
X5.4Y-3.85
X5.4Y-3.95
X5.4Y-4.05
X5.4Y-4.15
X6.0Y-2.85
X6.0Y-2.95
X6.0Y-3.05
X6.0Y-3.15
X6.0Y-3.25
X6.0Y-3.35
X6.0Y-3.45
X6.0Y-3.55
X6.0Y-3.65
X6.0Y-3.75
X6.0Y-3.85
X6.0Y-3.95
X6.0Y-4.05
X6.0Y-4.15
T0
M30
