%TF.GenerationSoftware,KiCad,Pcbnew,(5.1.6)-1*%
%TF.CreationDate,2021-05-02T13:18:50+02:00*%
%TF.ProjectId,cal-fram,63616c2d-6672-4616-9d2e-6b696361645f,rev?*%
%TF.SameCoordinates,Original*%
%TF.FileFunction,Copper,L2,Bot*%
%TF.FilePolarity,Positive*%
%FSLAX46Y46*%
G04 Gerber Fmt 4.6, Leading zero omitted, Abs format (unit mm)*
G04 Created by KiCad (PCBNEW (5.1.6)-1) date 2021-05-02 13:18:50*
%MOMM*%
%LPD*%
G01*
G04 APERTURE LIST*
%TA.AperFunction,ComponentPad*%
%ADD10O,1.600000X1.600000*%
%TD*%
%TA.AperFunction,ComponentPad*%
%ADD11R,1.600000X1.600000*%
%TD*%
%TA.AperFunction,ViaPad*%
%ADD12C,0.800000*%
%TD*%
%TA.AperFunction,Conductor*%
%ADD13C,0.500000*%
%TD*%
%TA.AperFunction,Conductor*%
%ADD14C,0.254000*%
%TD*%
G04 APERTURE END LIST*
D10*
%TO.P,J1,24*%
%TO.N,Net-(J1-Pad24)*%
X160240000Y-70000000D03*
%TO.P,J1,12*%
%TO.N,GND*%
X145000000Y-97940000D03*
%TO.P,J1,23*%
%TO.N,Net-(J1-Pad23)*%
X160240000Y-72540000D03*
%TO.P,J1,11*%
%TO.N,Net-(J1-Pad11)*%
X145000000Y-95400000D03*
%TO.P,J1,22*%
%TO.N,Net-(J1-Pad22)*%
X160240000Y-75080000D03*
%TO.P,J1,10*%
%TO.N,Net-(J1-Pad10)*%
X145000000Y-92860000D03*
%TO.P,J1,21*%
%TO.N,Net-(J1-Pad21)*%
X160240000Y-77620000D03*
%TO.P,J1,9*%
%TO.N,Net-(J1-Pad9)*%
X145000000Y-90320000D03*
%TO.P,J1,20*%
%TO.N,Net-(J1-Pad20)*%
X160240000Y-80160000D03*
%TO.P,J1,8*%
%TO.N,Net-(J1-Pad8)*%
X145000000Y-87780000D03*
%TO.P,J1,19*%
%TO.N,Net-(J1-Pad19)*%
X160240000Y-82700000D03*
%TO.P,J1,7*%
%TO.N,Net-(J1-Pad7)*%
X145000000Y-85240000D03*
%TO.P,J1,18*%
%TO.N,Net-(J1-Pad18)*%
X160240000Y-85240000D03*
%TO.P,J1,6*%
%TO.N,Net-(J1-Pad6)*%
X145000000Y-82700000D03*
%TO.P,J1,17*%
%TO.N,Net-(J1-Pad17)*%
X160240000Y-87780000D03*
%TO.P,J1,5*%
%TO.N,Net-(J1-Pad5)*%
X145000000Y-80160000D03*
%TO.P,J1,16*%
%TO.N,Net-(J1-Pad16)*%
X160240000Y-90320000D03*
%TO.P,J1,4*%
%TO.N,Net-(J1-Pad4)*%
X145000000Y-77620000D03*
%TO.P,J1,15*%
%TO.N,Net-(J1-Pad15)*%
X160240000Y-92860000D03*
%TO.P,J1,3*%
%TO.N,Net-(J1-Pad3)*%
X145000000Y-75080000D03*
%TO.P,J1,14*%
%TO.N,Net-(J1-Pad14)*%
X160240000Y-95400000D03*
%TO.P,J1,2*%
%TO.N,Net-(J1-Pad2)*%
X145000000Y-72540000D03*
%TO.P,J1,13*%
%TO.N,Net-(J1-Pad13)*%
X160240000Y-97940000D03*
D11*
%TO.P,J1,1*%
%TO.N,Net-(J1-Pad1)*%
X145000000Y-70000000D03*
%TD*%
D12*
%TO.N,GND*%
X150000000Y-92250000D03*
X150000000Y-77000000D03*
X155250000Y-82000000D03*
%TO.N,Net-(J1-Pad23)*%
X155250000Y-79500000D03*
%TO.N,Net-(J1-Pad22)*%
X155250000Y-80750000D03*
%TO.N,Net-(J1-Pad4)*%
X150000000Y-82000000D03*
%TO.N,Net-(J1-Pad3)*%
X150000000Y-73750000D03*
%TO.N,Net-(J1-Pad14)*%
X155500000Y-91000000D03*
%TD*%
D13*
%TO.N,Net-(J1-Pad23)*%
X155250000Y-77530000D02*
X160240000Y-72540000D01*
X155250000Y-79500000D02*
X155250000Y-77530000D01*
%TO.N,Net-(J1-Pad22)*%
X158000000Y-77320000D02*
X160240000Y-75080000D01*
X158000000Y-78008002D02*
X158000000Y-77320000D01*
X157991998Y-78008002D02*
X155250000Y-80750000D01*
X158000000Y-78008002D02*
X157991998Y-78008002D01*
%TO.N,Net-(J1-Pad4)*%
X149380000Y-82000000D02*
X145000000Y-77620000D01*
X150000000Y-82000000D02*
X149380000Y-82000000D01*
%TO.N,Net-(J1-Pad3)*%
X145000000Y-75080000D02*
X148670000Y-75080000D01*
X148670000Y-75080000D02*
X150000000Y-73750000D01*
%TO.N,Net-(J1-Pad14)*%
X159900000Y-95400000D02*
X160240000Y-95400000D01*
X155500000Y-91000000D02*
X159900000Y-95400000D01*
%TD*%
D14*
%TO.N,GND*%
G36*
X159125363Y-69085241D02*
G01*
X158968320Y-69320273D01*
X158860147Y-69581426D01*
X158805000Y-69858665D01*
X158805000Y-70141335D01*
X158860147Y-70418574D01*
X158968320Y-70679727D01*
X159125363Y-70914759D01*
X159325241Y-71114637D01*
X159557759Y-71270000D01*
X159325241Y-71425363D01*
X159125363Y-71625241D01*
X158968320Y-71860273D01*
X158860147Y-72121426D01*
X158805000Y-72398665D01*
X158805000Y-72681335D01*
X158811983Y-72716439D01*
X154654952Y-76873470D01*
X154621184Y-76901183D01*
X154593471Y-76934951D01*
X154593468Y-76934954D01*
X154510590Y-77035941D01*
X154428412Y-77189687D01*
X154377805Y-77356510D01*
X154360719Y-77530000D01*
X154365001Y-77573479D01*
X154365000Y-78961545D01*
X154332795Y-79009744D01*
X154254774Y-79198102D01*
X154215000Y-79398061D01*
X154215000Y-79601939D01*
X154254774Y-79801898D01*
X154332795Y-79990256D01*
X154422828Y-80125000D01*
X154332795Y-80259744D01*
X154254774Y-80448102D01*
X154215000Y-80648061D01*
X154215000Y-80851939D01*
X154254774Y-81051898D01*
X154332795Y-81240256D01*
X154446063Y-81409774D01*
X154590226Y-81553937D01*
X154759744Y-81667205D01*
X154948102Y-81745226D01*
X155148061Y-81785000D01*
X155351939Y-81785000D01*
X155551898Y-81745226D01*
X155740256Y-81667205D01*
X155909774Y-81553937D01*
X156053937Y-81409774D01*
X156167205Y-81240256D01*
X156245226Y-81051898D01*
X156256535Y-80995043D01*
X158550424Y-78701155D01*
X158628817Y-78636819D01*
X158739411Y-78502061D01*
X158821589Y-78348315D01*
X158872195Y-78181492D01*
X158881253Y-78089527D01*
X158968320Y-78299727D01*
X159125363Y-78534759D01*
X159325241Y-78734637D01*
X159557759Y-78890000D01*
X159325241Y-79045363D01*
X159125363Y-79245241D01*
X158968320Y-79480273D01*
X158860147Y-79741426D01*
X158805000Y-80018665D01*
X158805000Y-80301335D01*
X158860147Y-80578574D01*
X158968320Y-80839727D01*
X159125363Y-81074759D01*
X159325241Y-81274637D01*
X159557759Y-81430000D01*
X159325241Y-81585363D01*
X159125363Y-81785241D01*
X158968320Y-82020273D01*
X158860147Y-82281426D01*
X158805000Y-82558665D01*
X158805000Y-82841335D01*
X158860147Y-83118574D01*
X158968320Y-83379727D01*
X159125363Y-83614759D01*
X159325241Y-83814637D01*
X159557759Y-83970000D01*
X159325241Y-84125363D01*
X159125363Y-84325241D01*
X158968320Y-84560273D01*
X158860147Y-84821426D01*
X158805000Y-85098665D01*
X158805000Y-85381335D01*
X158860147Y-85658574D01*
X158968320Y-85919727D01*
X159125363Y-86154759D01*
X159325241Y-86354637D01*
X159557759Y-86510000D01*
X159325241Y-86665363D01*
X159125363Y-86865241D01*
X158968320Y-87100273D01*
X158860147Y-87361426D01*
X158805000Y-87638665D01*
X158805000Y-87921335D01*
X158860147Y-88198574D01*
X158968320Y-88459727D01*
X159125363Y-88694759D01*
X159325241Y-88894637D01*
X159557759Y-89050000D01*
X159325241Y-89205363D01*
X159125363Y-89405241D01*
X158968320Y-89640273D01*
X158860147Y-89901426D01*
X158805000Y-90178665D01*
X158805000Y-90461335D01*
X158860147Y-90738574D01*
X158968320Y-90999727D01*
X159125363Y-91234759D01*
X159325241Y-91434637D01*
X159557759Y-91590000D01*
X159325241Y-91745363D01*
X159125363Y-91945241D01*
X158968320Y-92180273D01*
X158860147Y-92441426D01*
X158805000Y-92718665D01*
X158805000Y-93001335D01*
X158817933Y-93066355D01*
X156506535Y-90754957D01*
X156495226Y-90698102D01*
X156417205Y-90509744D01*
X156303937Y-90340226D01*
X156159774Y-90196063D01*
X155990256Y-90082795D01*
X155801898Y-90004774D01*
X155601939Y-89965000D01*
X155398061Y-89965000D01*
X155198102Y-90004774D01*
X155009744Y-90082795D01*
X154840226Y-90196063D01*
X154696063Y-90340226D01*
X154582795Y-90509744D01*
X154504774Y-90698102D01*
X154465000Y-90898061D01*
X154465000Y-91101939D01*
X154504774Y-91301898D01*
X154582795Y-91490256D01*
X154696063Y-91659774D01*
X154840226Y-91803937D01*
X155009744Y-91917205D01*
X155198102Y-91995226D01*
X155254957Y-92006535D01*
X158808785Y-95560364D01*
X158860147Y-95818574D01*
X158968320Y-96079727D01*
X159125363Y-96314759D01*
X159325241Y-96514637D01*
X159557759Y-96670000D01*
X159325241Y-96825363D01*
X159125363Y-97025241D01*
X158968320Y-97260273D01*
X158860147Y-97521426D01*
X158805000Y-97798665D01*
X158805000Y-98081335D01*
X158860147Y-98358574D01*
X158968320Y-98619727D01*
X159125363Y-98854759D01*
X159325241Y-99054637D01*
X159378166Y-99090000D01*
X145857761Y-99090000D01*
X146063519Y-98903414D01*
X146231037Y-98677420D01*
X146351246Y-98423087D01*
X146391904Y-98289039D01*
X146269915Y-98067000D01*
X145127000Y-98067000D01*
X145127000Y-98087000D01*
X144873000Y-98087000D01*
X144873000Y-98067000D01*
X144853000Y-98067000D01*
X144853000Y-97813000D01*
X144873000Y-97813000D01*
X144873000Y-97793000D01*
X145127000Y-97793000D01*
X145127000Y-97813000D01*
X146269915Y-97813000D01*
X146391904Y-97590961D01*
X146351246Y-97456913D01*
X146231037Y-97202580D01*
X146063519Y-96976586D01*
X145855131Y-96787615D01*
X145669135Y-96676067D01*
X145679727Y-96671680D01*
X145914759Y-96514637D01*
X146114637Y-96314759D01*
X146271680Y-96079727D01*
X146379853Y-95818574D01*
X146435000Y-95541335D01*
X146435000Y-95258665D01*
X146379853Y-94981426D01*
X146271680Y-94720273D01*
X146114637Y-94485241D01*
X145914759Y-94285363D01*
X145682241Y-94130000D01*
X145914759Y-93974637D01*
X146114637Y-93774759D01*
X146271680Y-93539727D01*
X146379853Y-93278574D01*
X146435000Y-93001335D01*
X146435000Y-92718665D01*
X146379853Y-92441426D01*
X146271680Y-92180273D01*
X146114637Y-91945241D01*
X145914759Y-91745363D01*
X145682241Y-91590000D01*
X145914759Y-91434637D01*
X146114637Y-91234759D01*
X146271680Y-90999727D01*
X146379853Y-90738574D01*
X146435000Y-90461335D01*
X146435000Y-90178665D01*
X146379853Y-89901426D01*
X146271680Y-89640273D01*
X146114637Y-89405241D01*
X145914759Y-89205363D01*
X145682241Y-89050000D01*
X145914759Y-88894637D01*
X146114637Y-88694759D01*
X146271680Y-88459727D01*
X146379853Y-88198574D01*
X146435000Y-87921335D01*
X146435000Y-87638665D01*
X146379853Y-87361426D01*
X146271680Y-87100273D01*
X146114637Y-86865241D01*
X145914759Y-86665363D01*
X145682241Y-86510000D01*
X145914759Y-86354637D01*
X146114637Y-86154759D01*
X146271680Y-85919727D01*
X146379853Y-85658574D01*
X146435000Y-85381335D01*
X146435000Y-85098665D01*
X146379853Y-84821426D01*
X146271680Y-84560273D01*
X146114637Y-84325241D01*
X145914759Y-84125363D01*
X145682241Y-83970000D01*
X145914759Y-83814637D01*
X146114637Y-83614759D01*
X146271680Y-83379727D01*
X146379853Y-83118574D01*
X146435000Y-82841335D01*
X146435000Y-82558665D01*
X146379853Y-82281426D01*
X146271680Y-82020273D01*
X146114637Y-81785241D01*
X145914759Y-81585363D01*
X145682241Y-81430000D01*
X145914759Y-81274637D01*
X146114637Y-81074759D01*
X146271680Y-80839727D01*
X146379853Y-80578574D01*
X146434130Y-80305709D01*
X148723470Y-82595049D01*
X148751183Y-82628817D01*
X148784951Y-82656530D01*
X148784953Y-82656532D01*
X148856452Y-82715210D01*
X148885941Y-82739411D01*
X149039687Y-82821589D01*
X149206510Y-82872195D01*
X149336523Y-82885000D01*
X149336533Y-82885000D01*
X149379999Y-82889281D01*
X149423465Y-82885000D01*
X149461546Y-82885000D01*
X149509744Y-82917205D01*
X149698102Y-82995226D01*
X149898061Y-83035000D01*
X150101939Y-83035000D01*
X150301898Y-82995226D01*
X150490256Y-82917205D01*
X150659774Y-82803937D01*
X150803937Y-82659774D01*
X150917205Y-82490256D01*
X150995226Y-82301898D01*
X151035000Y-82101939D01*
X151035000Y-81898061D01*
X150995226Y-81698102D01*
X150917205Y-81509744D01*
X150803937Y-81340226D01*
X150659774Y-81196063D01*
X150490256Y-81082795D01*
X150301898Y-81004774D01*
X150101939Y-80965000D01*
X149898061Y-80965000D01*
X149698102Y-81004774D01*
X149654439Y-81022860D01*
X146428017Y-77796439D01*
X146435000Y-77761335D01*
X146435000Y-77478665D01*
X146379853Y-77201426D01*
X146271680Y-76940273D01*
X146114637Y-76705241D01*
X145914759Y-76505363D01*
X145682241Y-76350000D01*
X145914759Y-76194637D01*
X146114637Y-75994759D01*
X146134521Y-75965000D01*
X148626531Y-75965000D01*
X148670000Y-75969281D01*
X148713469Y-75965000D01*
X148713477Y-75965000D01*
X148843490Y-75952195D01*
X149010313Y-75901589D01*
X149164059Y-75819411D01*
X149298817Y-75708817D01*
X149326534Y-75675044D01*
X150245044Y-74756535D01*
X150301898Y-74745226D01*
X150490256Y-74667205D01*
X150659774Y-74553937D01*
X150803937Y-74409774D01*
X150917205Y-74240256D01*
X150995226Y-74051898D01*
X151035000Y-73851939D01*
X151035000Y-73648061D01*
X150995226Y-73448102D01*
X150917205Y-73259744D01*
X150803937Y-73090226D01*
X150659774Y-72946063D01*
X150490256Y-72832795D01*
X150301898Y-72754774D01*
X150101939Y-72715000D01*
X149898061Y-72715000D01*
X149698102Y-72754774D01*
X149509744Y-72832795D01*
X149340226Y-72946063D01*
X149196063Y-73090226D01*
X149082795Y-73259744D01*
X149004774Y-73448102D01*
X148993465Y-73504956D01*
X148303422Y-74195000D01*
X146134521Y-74195000D01*
X146114637Y-74165241D01*
X145914759Y-73965363D01*
X145682241Y-73810000D01*
X145914759Y-73654637D01*
X146114637Y-73454759D01*
X146271680Y-73219727D01*
X146379853Y-72958574D01*
X146435000Y-72681335D01*
X146435000Y-72398665D01*
X146379853Y-72121426D01*
X146271680Y-71860273D01*
X146114637Y-71625241D01*
X145916039Y-71426643D01*
X145924482Y-71425812D01*
X146044180Y-71389502D01*
X146154494Y-71330537D01*
X146251185Y-71251185D01*
X146330537Y-71154494D01*
X146389502Y-71044180D01*
X146425812Y-70924482D01*
X146438072Y-70800000D01*
X146438072Y-69200000D01*
X146425812Y-69075518D01*
X146389502Y-68955820D01*
X146365010Y-68910000D01*
X159300604Y-68910000D01*
X159125363Y-69085241D01*
G37*
X159125363Y-69085241D02*
X158968320Y-69320273D01*
X158860147Y-69581426D01*
X158805000Y-69858665D01*
X158805000Y-70141335D01*
X158860147Y-70418574D01*
X158968320Y-70679727D01*
X159125363Y-70914759D01*
X159325241Y-71114637D01*
X159557759Y-71270000D01*
X159325241Y-71425363D01*
X159125363Y-71625241D01*
X158968320Y-71860273D01*
X158860147Y-72121426D01*
X158805000Y-72398665D01*
X158805000Y-72681335D01*
X158811983Y-72716439D01*
X154654952Y-76873470D01*
X154621184Y-76901183D01*
X154593471Y-76934951D01*
X154593468Y-76934954D01*
X154510590Y-77035941D01*
X154428412Y-77189687D01*
X154377805Y-77356510D01*
X154360719Y-77530000D01*
X154365001Y-77573479D01*
X154365000Y-78961545D01*
X154332795Y-79009744D01*
X154254774Y-79198102D01*
X154215000Y-79398061D01*
X154215000Y-79601939D01*
X154254774Y-79801898D01*
X154332795Y-79990256D01*
X154422828Y-80125000D01*
X154332795Y-80259744D01*
X154254774Y-80448102D01*
X154215000Y-80648061D01*
X154215000Y-80851939D01*
X154254774Y-81051898D01*
X154332795Y-81240256D01*
X154446063Y-81409774D01*
X154590226Y-81553937D01*
X154759744Y-81667205D01*
X154948102Y-81745226D01*
X155148061Y-81785000D01*
X155351939Y-81785000D01*
X155551898Y-81745226D01*
X155740256Y-81667205D01*
X155909774Y-81553937D01*
X156053937Y-81409774D01*
X156167205Y-81240256D01*
X156245226Y-81051898D01*
X156256535Y-80995043D01*
X158550424Y-78701155D01*
X158628817Y-78636819D01*
X158739411Y-78502061D01*
X158821589Y-78348315D01*
X158872195Y-78181492D01*
X158881253Y-78089527D01*
X158968320Y-78299727D01*
X159125363Y-78534759D01*
X159325241Y-78734637D01*
X159557759Y-78890000D01*
X159325241Y-79045363D01*
X159125363Y-79245241D01*
X158968320Y-79480273D01*
X158860147Y-79741426D01*
X158805000Y-80018665D01*
X158805000Y-80301335D01*
X158860147Y-80578574D01*
X158968320Y-80839727D01*
X159125363Y-81074759D01*
X159325241Y-81274637D01*
X159557759Y-81430000D01*
X159325241Y-81585363D01*
X159125363Y-81785241D01*
X158968320Y-82020273D01*
X158860147Y-82281426D01*
X158805000Y-82558665D01*
X158805000Y-82841335D01*
X158860147Y-83118574D01*
X158968320Y-83379727D01*
X159125363Y-83614759D01*
X159325241Y-83814637D01*
X159557759Y-83970000D01*
X159325241Y-84125363D01*
X159125363Y-84325241D01*
X158968320Y-84560273D01*
X158860147Y-84821426D01*
X158805000Y-85098665D01*
X158805000Y-85381335D01*
X158860147Y-85658574D01*
X158968320Y-85919727D01*
X159125363Y-86154759D01*
X159325241Y-86354637D01*
X159557759Y-86510000D01*
X159325241Y-86665363D01*
X159125363Y-86865241D01*
X158968320Y-87100273D01*
X158860147Y-87361426D01*
X158805000Y-87638665D01*
X158805000Y-87921335D01*
X158860147Y-88198574D01*
X158968320Y-88459727D01*
X159125363Y-88694759D01*
X159325241Y-88894637D01*
X159557759Y-89050000D01*
X159325241Y-89205363D01*
X159125363Y-89405241D01*
X158968320Y-89640273D01*
X158860147Y-89901426D01*
X158805000Y-90178665D01*
X158805000Y-90461335D01*
X158860147Y-90738574D01*
X158968320Y-90999727D01*
X159125363Y-91234759D01*
X159325241Y-91434637D01*
X159557759Y-91590000D01*
X159325241Y-91745363D01*
X159125363Y-91945241D01*
X158968320Y-92180273D01*
X158860147Y-92441426D01*
X158805000Y-92718665D01*
X158805000Y-93001335D01*
X158817933Y-93066355D01*
X156506535Y-90754957D01*
X156495226Y-90698102D01*
X156417205Y-90509744D01*
X156303937Y-90340226D01*
X156159774Y-90196063D01*
X155990256Y-90082795D01*
X155801898Y-90004774D01*
X155601939Y-89965000D01*
X155398061Y-89965000D01*
X155198102Y-90004774D01*
X155009744Y-90082795D01*
X154840226Y-90196063D01*
X154696063Y-90340226D01*
X154582795Y-90509744D01*
X154504774Y-90698102D01*
X154465000Y-90898061D01*
X154465000Y-91101939D01*
X154504774Y-91301898D01*
X154582795Y-91490256D01*
X154696063Y-91659774D01*
X154840226Y-91803937D01*
X155009744Y-91917205D01*
X155198102Y-91995226D01*
X155254957Y-92006535D01*
X158808785Y-95560364D01*
X158860147Y-95818574D01*
X158968320Y-96079727D01*
X159125363Y-96314759D01*
X159325241Y-96514637D01*
X159557759Y-96670000D01*
X159325241Y-96825363D01*
X159125363Y-97025241D01*
X158968320Y-97260273D01*
X158860147Y-97521426D01*
X158805000Y-97798665D01*
X158805000Y-98081335D01*
X158860147Y-98358574D01*
X158968320Y-98619727D01*
X159125363Y-98854759D01*
X159325241Y-99054637D01*
X159378166Y-99090000D01*
X145857761Y-99090000D01*
X146063519Y-98903414D01*
X146231037Y-98677420D01*
X146351246Y-98423087D01*
X146391904Y-98289039D01*
X146269915Y-98067000D01*
X145127000Y-98067000D01*
X145127000Y-98087000D01*
X144873000Y-98087000D01*
X144873000Y-98067000D01*
X144853000Y-98067000D01*
X144853000Y-97813000D01*
X144873000Y-97813000D01*
X144873000Y-97793000D01*
X145127000Y-97793000D01*
X145127000Y-97813000D01*
X146269915Y-97813000D01*
X146391904Y-97590961D01*
X146351246Y-97456913D01*
X146231037Y-97202580D01*
X146063519Y-96976586D01*
X145855131Y-96787615D01*
X145669135Y-96676067D01*
X145679727Y-96671680D01*
X145914759Y-96514637D01*
X146114637Y-96314759D01*
X146271680Y-96079727D01*
X146379853Y-95818574D01*
X146435000Y-95541335D01*
X146435000Y-95258665D01*
X146379853Y-94981426D01*
X146271680Y-94720273D01*
X146114637Y-94485241D01*
X145914759Y-94285363D01*
X145682241Y-94130000D01*
X145914759Y-93974637D01*
X146114637Y-93774759D01*
X146271680Y-93539727D01*
X146379853Y-93278574D01*
X146435000Y-93001335D01*
X146435000Y-92718665D01*
X146379853Y-92441426D01*
X146271680Y-92180273D01*
X146114637Y-91945241D01*
X145914759Y-91745363D01*
X145682241Y-91590000D01*
X145914759Y-91434637D01*
X146114637Y-91234759D01*
X146271680Y-90999727D01*
X146379853Y-90738574D01*
X146435000Y-90461335D01*
X146435000Y-90178665D01*
X146379853Y-89901426D01*
X146271680Y-89640273D01*
X146114637Y-89405241D01*
X145914759Y-89205363D01*
X145682241Y-89050000D01*
X145914759Y-88894637D01*
X146114637Y-88694759D01*
X146271680Y-88459727D01*
X146379853Y-88198574D01*
X146435000Y-87921335D01*
X146435000Y-87638665D01*
X146379853Y-87361426D01*
X146271680Y-87100273D01*
X146114637Y-86865241D01*
X145914759Y-86665363D01*
X145682241Y-86510000D01*
X145914759Y-86354637D01*
X146114637Y-86154759D01*
X146271680Y-85919727D01*
X146379853Y-85658574D01*
X146435000Y-85381335D01*
X146435000Y-85098665D01*
X146379853Y-84821426D01*
X146271680Y-84560273D01*
X146114637Y-84325241D01*
X145914759Y-84125363D01*
X145682241Y-83970000D01*
X145914759Y-83814637D01*
X146114637Y-83614759D01*
X146271680Y-83379727D01*
X146379853Y-83118574D01*
X146435000Y-82841335D01*
X146435000Y-82558665D01*
X146379853Y-82281426D01*
X146271680Y-82020273D01*
X146114637Y-81785241D01*
X145914759Y-81585363D01*
X145682241Y-81430000D01*
X145914759Y-81274637D01*
X146114637Y-81074759D01*
X146271680Y-80839727D01*
X146379853Y-80578574D01*
X146434130Y-80305709D01*
X148723470Y-82595049D01*
X148751183Y-82628817D01*
X148784951Y-82656530D01*
X148784953Y-82656532D01*
X148856452Y-82715210D01*
X148885941Y-82739411D01*
X149039687Y-82821589D01*
X149206510Y-82872195D01*
X149336523Y-82885000D01*
X149336533Y-82885000D01*
X149379999Y-82889281D01*
X149423465Y-82885000D01*
X149461546Y-82885000D01*
X149509744Y-82917205D01*
X149698102Y-82995226D01*
X149898061Y-83035000D01*
X150101939Y-83035000D01*
X150301898Y-82995226D01*
X150490256Y-82917205D01*
X150659774Y-82803937D01*
X150803937Y-82659774D01*
X150917205Y-82490256D01*
X150995226Y-82301898D01*
X151035000Y-82101939D01*
X151035000Y-81898061D01*
X150995226Y-81698102D01*
X150917205Y-81509744D01*
X150803937Y-81340226D01*
X150659774Y-81196063D01*
X150490256Y-81082795D01*
X150301898Y-81004774D01*
X150101939Y-80965000D01*
X149898061Y-80965000D01*
X149698102Y-81004774D01*
X149654439Y-81022860D01*
X146428017Y-77796439D01*
X146435000Y-77761335D01*
X146435000Y-77478665D01*
X146379853Y-77201426D01*
X146271680Y-76940273D01*
X146114637Y-76705241D01*
X145914759Y-76505363D01*
X145682241Y-76350000D01*
X145914759Y-76194637D01*
X146114637Y-75994759D01*
X146134521Y-75965000D01*
X148626531Y-75965000D01*
X148670000Y-75969281D01*
X148713469Y-75965000D01*
X148713477Y-75965000D01*
X148843490Y-75952195D01*
X149010313Y-75901589D01*
X149164059Y-75819411D01*
X149298817Y-75708817D01*
X149326534Y-75675044D01*
X150245044Y-74756535D01*
X150301898Y-74745226D01*
X150490256Y-74667205D01*
X150659774Y-74553937D01*
X150803937Y-74409774D01*
X150917205Y-74240256D01*
X150995226Y-74051898D01*
X151035000Y-73851939D01*
X151035000Y-73648061D01*
X150995226Y-73448102D01*
X150917205Y-73259744D01*
X150803937Y-73090226D01*
X150659774Y-72946063D01*
X150490256Y-72832795D01*
X150301898Y-72754774D01*
X150101939Y-72715000D01*
X149898061Y-72715000D01*
X149698102Y-72754774D01*
X149509744Y-72832795D01*
X149340226Y-72946063D01*
X149196063Y-73090226D01*
X149082795Y-73259744D01*
X149004774Y-73448102D01*
X148993465Y-73504956D01*
X148303422Y-74195000D01*
X146134521Y-74195000D01*
X146114637Y-74165241D01*
X145914759Y-73965363D01*
X145682241Y-73810000D01*
X145914759Y-73654637D01*
X146114637Y-73454759D01*
X146271680Y-73219727D01*
X146379853Y-72958574D01*
X146435000Y-72681335D01*
X146435000Y-72398665D01*
X146379853Y-72121426D01*
X146271680Y-71860273D01*
X146114637Y-71625241D01*
X145916039Y-71426643D01*
X145924482Y-71425812D01*
X146044180Y-71389502D01*
X146154494Y-71330537D01*
X146251185Y-71251185D01*
X146330537Y-71154494D01*
X146389502Y-71044180D01*
X146425812Y-70924482D01*
X146438072Y-70800000D01*
X146438072Y-69200000D01*
X146425812Y-69075518D01*
X146389502Y-68955820D01*
X146365010Y-68910000D01*
X159300604Y-68910000D01*
X159125363Y-69085241D01*
%TD*%
M02*
