%TF.GenerationSoftware,KiCad,Pcbnew,(5.1.6)-1*%
%TF.CreationDate,2021-05-02T13:18:50+02:00*%
%TF.ProjectId,cal-fram,63616c2d-6672-4616-9d2e-6b696361645f,rev?*%
%TF.SameCoordinates,Original*%
%TF.FileFunction,Legend,Top*%
%TF.FilePolarity,Positive*%
%FSLAX46Y46*%
G04 Gerber Fmt 4.6, Leading zero omitted, Abs format (unit mm)*
G04 Created by KiCad (PCBNEW (5.1.6)-1) date 2021-05-02 13:18:50*
%MOMM*%
%LPD*%
G01*
G04 APERTURE LIST*
%ADD10C,0.250000*%
%ADD11C,0.010000*%
%ADD12C,0.120000*%
G04 APERTURE END LIST*
D10*
X149607142Y-95202380D02*
X149607142Y-94202380D01*
X149845238Y-94202380D01*
X149988095Y-94250000D01*
X150083333Y-94345238D01*
X150130952Y-94440476D01*
X150178571Y-94630952D01*
X150178571Y-94773809D01*
X150130952Y-94964285D01*
X150083333Y-95059523D01*
X149988095Y-95154761D01*
X149845238Y-95202380D01*
X149607142Y-95202380D01*
X150559523Y-95154761D02*
X150702380Y-95202380D01*
X150940476Y-95202380D01*
X151035714Y-95154761D01*
X151083333Y-95107142D01*
X151130952Y-95011904D01*
X151130952Y-94916666D01*
X151083333Y-94821428D01*
X151035714Y-94773809D01*
X150940476Y-94726190D01*
X150750000Y-94678571D01*
X150654761Y-94630952D01*
X150607142Y-94583333D01*
X150559523Y-94488095D01*
X150559523Y-94392857D01*
X150607142Y-94297619D01*
X150654761Y-94250000D01*
X150750000Y-94202380D01*
X150988095Y-94202380D01*
X151130952Y-94250000D01*
X152083333Y-95202380D02*
X151511904Y-95202380D01*
X151797619Y-95202380D02*
X151797619Y-94202380D01*
X151702380Y-94345238D01*
X151607142Y-94440476D01*
X151511904Y-94488095D01*
X152464285Y-94297619D02*
X152511904Y-94250000D01*
X152607142Y-94202380D01*
X152845238Y-94202380D01*
X152940476Y-94250000D01*
X152988095Y-94297619D01*
X153035714Y-94392857D01*
X153035714Y-94488095D01*
X152988095Y-94630952D01*
X152416666Y-95202380D01*
X153035714Y-95202380D01*
X153416666Y-94297619D02*
X153464285Y-94250000D01*
X153559523Y-94202380D01*
X153797619Y-94202380D01*
X153892857Y-94250000D01*
X153940476Y-94297619D01*
X153988095Y-94392857D01*
X153988095Y-94488095D01*
X153940476Y-94630952D01*
X153369047Y-95202380D01*
X153988095Y-95202380D01*
X154607142Y-94202380D02*
X154702380Y-94202380D01*
X154797619Y-94250000D01*
X154845238Y-94297619D01*
X154892857Y-94392857D01*
X154940476Y-94583333D01*
X154940476Y-94821428D01*
X154892857Y-95011904D01*
X154845238Y-95107142D01*
X154797619Y-95154761D01*
X154702380Y-95202380D01*
X154607142Y-95202380D01*
X154511904Y-95154761D01*
X154464285Y-95107142D01*
X154416666Y-95011904D01*
X154369047Y-94821428D01*
X154369047Y-94583333D01*
X154416666Y-94392857D01*
X154464285Y-94297619D01*
X154511904Y-94250000D01*
X154607142Y-94202380D01*
X149345238Y-96428571D02*
X149011904Y-96428571D01*
X149011904Y-96952380D02*
X149011904Y-95952380D01*
X149488095Y-95952380D01*
X149869047Y-96952380D02*
X149869047Y-95952380D01*
X150202380Y-96666666D01*
X150535714Y-95952380D01*
X150535714Y-96952380D01*
X151535714Y-96952380D02*
X150964285Y-96952380D01*
X151250000Y-96952380D02*
X151250000Y-95952380D01*
X151154761Y-96095238D01*
X151059523Y-96190476D01*
X150964285Y-96238095D01*
X152392857Y-95952380D02*
X152202380Y-95952380D01*
X152107142Y-96000000D01*
X152059523Y-96047619D01*
X151964285Y-96190476D01*
X151916666Y-96380952D01*
X151916666Y-96761904D01*
X151964285Y-96857142D01*
X152011904Y-96904761D01*
X152107142Y-96952380D01*
X152297619Y-96952380D01*
X152392857Y-96904761D01*
X152440476Y-96857142D01*
X152488095Y-96761904D01*
X152488095Y-96523809D01*
X152440476Y-96428571D01*
X152392857Y-96380952D01*
X152297619Y-96333333D01*
X152107142Y-96333333D01*
X152011904Y-96380952D01*
X151964285Y-96428571D01*
X151916666Y-96523809D01*
X152821428Y-95952380D02*
X153059523Y-96952380D01*
X153250000Y-96238095D01*
X153440476Y-96952380D01*
X153678571Y-95952380D01*
X154250000Y-95952380D02*
X154345238Y-95952380D01*
X154440476Y-96000000D01*
X154488095Y-96047619D01*
X154535714Y-96142857D01*
X154583333Y-96333333D01*
X154583333Y-96571428D01*
X154535714Y-96761904D01*
X154488095Y-96857142D01*
X154440476Y-96904761D01*
X154345238Y-96952380D01*
X154250000Y-96952380D01*
X154154761Y-96904761D01*
X154107142Y-96857142D01*
X154059523Y-96761904D01*
X154011904Y-96571428D01*
X154011904Y-96333333D01*
X154059523Y-96142857D01*
X154107142Y-96047619D01*
X154154761Y-96000000D01*
X154250000Y-95952380D01*
X155154761Y-96380952D02*
X155059523Y-96333333D01*
X155011904Y-96285714D01*
X154964285Y-96190476D01*
X154964285Y-96142857D01*
X155011904Y-96047619D01*
X155059523Y-96000000D01*
X155154761Y-95952380D01*
X155345238Y-95952380D01*
X155440476Y-96000000D01*
X155488095Y-96047619D01*
X155535714Y-96142857D01*
X155535714Y-96190476D01*
X155488095Y-96285714D01*
X155440476Y-96333333D01*
X155345238Y-96380952D01*
X155154761Y-96380952D01*
X155059523Y-96428571D01*
X155011904Y-96476190D01*
X154964285Y-96571428D01*
X154964285Y-96761904D01*
X155011904Y-96857142D01*
X155059523Y-96904761D01*
X155154761Y-96952380D01*
X155345238Y-96952380D01*
X155440476Y-96904761D01*
X155488095Y-96857142D01*
X155535714Y-96761904D01*
X155535714Y-96571428D01*
X155488095Y-96476190D01*
X155440476Y-96428571D01*
X155345238Y-96380952D01*
X150083333Y-98702380D02*
X150083333Y-98178571D01*
X150035714Y-98083333D01*
X149940476Y-98035714D01*
X149750000Y-98035714D01*
X149654761Y-98083333D01*
X150083333Y-98654761D02*
X149988095Y-98702380D01*
X149750000Y-98702380D01*
X149654761Y-98654761D01*
X149607142Y-98559523D01*
X149607142Y-98464285D01*
X149654761Y-98369047D01*
X149750000Y-98321428D01*
X149988095Y-98321428D01*
X150083333Y-98273809D01*
X150988095Y-98702380D02*
X150988095Y-97702380D01*
X150988095Y-98654761D02*
X150892857Y-98702380D01*
X150702380Y-98702380D01*
X150607142Y-98654761D01*
X150559523Y-98607142D01*
X150511904Y-98511904D01*
X150511904Y-98226190D01*
X150559523Y-98130952D01*
X150607142Y-98083333D01*
X150702380Y-98035714D01*
X150892857Y-98035714D01*
X150988095Y-98083333D01*
X151892857Y-98702380D02*
X151892857Y-98178571D01*
X151845238Y-98083333D01*
X151750000Y-98035714D01*
X151559523Y-98035714D01*
X151464285Y-98083333D01*
X151892857Y-98654761D02*
X151797619Y-98702380D01*
X151559523Y-98702380D01*
X151464285Y-98654761D01*
X151416666Y-98559523D01*
X151416666Y-98464285D01*
X151464285Y-98369047D01*
X151559523Y-98321428D01*
X151797619Y-98321428D01*
X151892857Y-98273809D01*
X152369047Y-98035714D02*
X152369047Y-99035714D01*
X152369047Y-98083333D02*
X152464285Y-98035714D01*
X152654761Y-98035714D01*
X152750000Y-98083333D01*
X152797619Y-98130952D01*
X152845238Y-98226190D01*
X152845238Y-98511904D01*
X152797619Y-98607142D01*
X152750000Y-98654761D01*
X152654761Y-98702380D01*
X152464285Y-98702380D01*
X152369047Y-98654761D01*
X153130952Y-98035714D02*
X153511904Y-98035714D01*
X153273809Y-97702380D02*
X153273809Y-98559523D01*
X153321428Y-98654761D01*
X153416666Y-98702380D01*
X153511904Y-98702380D01*
X154226190Y-98654761D02*
X154130952Y-98702380D01*
X153940476Y-98702380D01*
X153845238Y-98654761D01*
X153797619Y-98559523D01*
X153797619Y-98178571D01*
X153845238Y-98083333D01*
X153940476Y-98035714D01*
X154130952Y-98035714D01*
X154226190Y-98083333D01*
X154273809Y-98178571D01*
X154273809Y-98273809D01*
X153797619Y-98369047D01*
X154702380Y-98702380D02*
X154702380Y-98035714D01*
X154702380Y-98226190D02*
X154750000Y-98130952D01*
X154797619Y-98083333D01*
X154892857Y-98035714D01*
X154988095Y-98035714D01*
D11*
%TO.C,G\u002A\u002A\u002A*%
G36*
X154358200Y-69446160D02*
G01*
X154396212Y-69452067D01*
X154414012Y-69456419D01*
X154467396Y-69473821D01*
X154514915Y-69495946D01*
X154557122Y-69523051D01*
X154559308Y-69524698D01*
X154585168Y-69546733D01*
X154605973Y-69570379D01*
X154623967Y-69598313D01*
X154629443Y-69608493D01*
X154645979Y-69639140D01*
X154661363Y-69664279D01*
X154676983Y-69685443D01*
X154694232Y-69704164D01*
X154714499Y-69721974D01*
X154739175Y-69740405D01*
X154765088Y-69757991D01*
X154799328Y-69781717D01*
X154828563Y-69804329D01*
X154852387Y-69825428D01*
X154870395Y-69844614D01*
X154882183Y-69861490D01*
X154887346Y-69875655D01*
X154887554Y-69878635D01*
X154885816Y-69887411D01*
X154879125Y-69891755D01*
X154877056Y-69892332D01*
X154866479Y-69893158D01*
X154849795Y-69892236D01*
X154828465Y-69889762D01*
X154803951Y-69885933D01*
X154777715Y-69880948D01*
X154754692Y-69875838D01*
X154735315Y-69871280D01*
X154716482Y-69866943D01*
X154700893Y-69863447D01*
X154694123Y-69861988D01*
X154679417Y-69858815D01*
X154665350Y-69855622D01*
X154660908Y-69854561D01*
X154653780Y-69853023D01*
X154644881Y-69851571D01*
X154632870Y-69850043D01*
X154616401Y-69848276D01*
X154594133Y-69846108D01*
X154580960Y-69844874D01*
X154570453Y-69845053D01*
X154553948Y-69846705D01*
X154533064Y-69849563D01*
X154509422Y-69853358D01*
X154484642Y-69857825D01*
X154460345Y-69862694D01*
X154438150Y-69867698D01*
X154429254Y-69869930D01*
X154390805Y-69882573D01*
X154356455Y-69899115D01*
X154327120Y-69918948D01*
X154303716Y-69941465D01*
X154288581Y-69963332D01*
X154284167Y-69973268D01*
X154278198Y-69989204D01*
X154271170Y-70009596D01*
X154263578Y-70032902D01*
X154255918Y-70057579D01*
X154248685Y-70082086D01*
X154242375Y-70104879D01*
X154239386Y-70116493D01*
X154230105Y-70158982D01*
X154221647Y-70207999D01*
X154214188Y-70262280D01*
X154207902Y-70320563D01*
X154203327Y-70376354D01*
X154201888Y-70403022D01*
X154200859Y-70435253D01*
X154200219Y-70472097D01*
X154199947Y-70512603D01*
X154200023Y-70555821D01*
X154200425Y-70600802D01*
X154201133Y-70646595D01*
X154202125Y-70692250D01*
X154203381Y-70736817D01*
X154204880Y-70779346D01*
X154206601Y-70818887D01*
X154208523Y-70854489D01*
X154210626Y-70885204D01*
X154212887Y-70910080D01*
X154215288Y-70928167D01*
X154215485Y-70929293D01*
X154222068Y-70965074D01*
X154227958Y-70994589D01*
X154233607Y-71019302D01*
X154239467Y-71040676D01*
X154245991Y-71060178D01*
X154253630Y-71079270D01*
X154262837Y-71099418D01*
X154274065Y-71122085D01*
X154276502Y-71126873D01*
X154288781Y-71150122D01*
X154301910Y-71173261D01*
X154316476Y-71197171D01*
X154333068Y-71222733D01*
X154352272Y-71250829D01*
X154374677Y-71282339D01*
X154400871Y-71318147D01*
X154430894Y-71358403D01*
X154449185Y-71382980D01*
X154466518Y-71406688D01*
X154482157Y-71428488D01*
X154495366Y-71447340D01*
X154505407Y-71462204D01*
X154511543Y-71472040D01*
X154512046Y-71472952D01*
X154517749Y-71485363D01*
X154524652Y-71503117D01*
X154531951Y-71524003D01*
X154538841Y-71545809D01*
X154539944Y-71549550D01*
X154549921Y-71588343D01*
X154557104Y-71627350D01*
X154561729Y-71668533D01*
X154564035Y-71713856D01*
X154564383Y-71751862D01*
X154564158Y-71774217D01*
X154563552Y-71790832D01*
X154562266Y-71803782D01*
X154560001Y-71815141D01*
X154556457Y-71826985D01*
X154551565Y-71840762D01*
X154543914Y-71859727D01*
X154537390Y-71871201D01*
X154531596Y-71875355D01*
X154526134Y-71872362D01*
X154520608Y-71862396D01*
X154517897Y-71855416D01*
X154513550Y-71844511D01*
X154509905Y-71837419D01*
X154508385Y-71835877D01*
X154504098Y-71839162D01*
X154497324Y-71848051D01*
X154488943Y-71861090D01*
X154479831Y-71876829D01*
X154470865Y-71893815D01*
X154462924Y-71910597D01*
X154462145Y-71912379D01*
X154453131Y-71933121D01*
X154446482Y-71947898D01*
X154441480Y-71957931D01*
X154437410Y-71964437D01*
X154433554Y-71968637D01*
X154429198Y-71971749D01*
X154426222Y-71973498D01*
X154418188Y-71977627D01*
X154413658Y-71977308D01*
X154409463Y-71972156D01*
X154408968Y-71971403D01*
X154405695Y-71962163D01*
X154403086Y-71945776D01*
X154401241Y-71922887D01*
X154401103Y-71920285D01*
X154400034Y-71902687D01*
X154398810Y-71887959D01*
X154397598Y-71877869D01*
X154396756Y-71874336D01*
X154393179Y-71873641D01*
X154388200Y-71879011D01*
X154382659Y-71889022D01*
X154377395Y-71902252D01*
X154374471Y-71912093D01*
X154364935Y-71942529D01*
X154353604Y-71966158D01*
X154340050Y-71983867D01*
X154339934Y-71983985D01*
X154326716Y-71994826D01*
X154310458Y-72004586D01*
X154293849Y-72011913D01*
X154279579Y-72015455D01*
X154277024Y-72015593D01*
X154270980Y-72016761D01*
X154264498Y-72020948D01*
X154256349Y-72029244D01*
X154245304Y-72042736D01*
X154242825Y-72045916D01*
X154225354Y-72068210D01*
X154211611Y-72085084D01*
X154200703Y-72097423D01*
X154191740Y-72106111D01*
X154183830Y-72112033D01*
X154176081Y-72116074D01*
X154169729Y-72118437D01*
X154157939Y-72121776D01*
X154150722Y-72121397D01*
X154146538Y-72116114D01*
X154143847Y-72104743D01*
X154142766Y-72097693D01*
X154140138Y-72082740D01*
X154137118Y-72075233D01*
X154132820Y-72074815D01*
X154126355Y-72081133D01*
X154120489Y-72088792D01*
X154110950Y-72100525D01*
X154097941Y-72114889D01*
X154083825Y-72129310D01*
X154079522Y-72133457D01*
X154053911Y-72156324D01*
X154032317Y-72172564D01*
X154014669Y-72182207D01*
X154000898Y-72185287D01*
X153990931Y-72181835D01*
X153986328Y-72175846D01*
X153981643Y-72165467D01*
X153978970Y-72158262D01*
X153977153Y-72154901D01*
X153973992Y-72155196D01*
X153968318Y-72159870D01*
X153958959Y-72169648D01*
X153956854Y-72171939D01*
X153945928Y-72184268D01*
X153932214Y-72200322D01*
X153917759Y-72217683D01*
X153908672Y-72228851D01*
X153882391Y-72259566D01*
X153858295Y-72283453D01*
X153835769Y-72300981D01*
X153814195Y-72312619D01*
X153792958Y-72318833D01*
X153789497Y-72319363D01*
X153778610Y-72319971D01*
X153773054Y-72317648D01*
X153771602Y-72315183D01*
X153771586Y-72309521D01*
X153772983Y-72297524D01*
X153775591Y-72280505D01*
X153779210Y-72259775D01*
X153783636Y-72236648D01*
X153783724Y-72236212D01*
X153789593Y-72205806D01*
X153793398Y-72182852D01*
X153794918Y-72167209D01*
X153793931Y-72158733D01*
X153790213Y-72157283D01*
X153783542Y-72162714D01*
X153773696Y-72174885D01*
X153760453Y-72193653D01*
X153747497Y-72212969D01*
X153728923Y-72240464D01*
X153713321Y-72262219D01*
X153699789Y-72279281D01*
X153687429Y-72292700D01*
X153675341Y-72303525D01*
X153662623Y-72312805D01*
X153660802Y-72314001D01*
X153642043Y-72325715D01*
X153626483Y-72334084D01*
X153611142Y-72340545D01*
X153594108Y-72346213D01*
X153579203Y-72350330D01*
X153569951Y-72351197D01*
X153564725Y-72348412D01*
X153561897Y-72341567D01*
X153561150Y-72338016D01*
X153558582Y-72328999D01*
X153555574Y-72324465D01*
X153555073Y-72324339D01*
X153550325Y-72325511D01*
X153539524Y-72328744D01*
X153524031Y-72333615D01*
X153505201Y-72339700D01*
X153493652Y-72343498D01*
X153462135Y-72353665D01*
X153436834Y-72361161D01*
X153416696Y-72366194D01*
X153400671Y-72368972D01*
X153387709Y-72369702D01*
X153376757Y-72368592D01*
X153372137Y-72367530D01*
X153362156Y-72363983D01*
X153356343Y-72360255D01*
X153355738Y-72358982D01*
X153356921Y-72351664D01*
X153359990Y-72339446D01*
X153364222Y-72324795D01*
X153368898Y-72310178D01*
X153373295Y-72298062D01*
X153374157Y-72295968D01*
X153377537Y-72286249D01*
X153378394Y-72279805D01*
X153378015Y-72278882D01*
X153373630Y-72279228D01*
X153363510Y-72281965D01*
X153349195Y-72286629D01*
X153333442Y-72292299D01*
X153298466Y-72305227D01*
X153269913Y-72315315D01*
X153247002Y-72322751D01*
X153228951Y-72327721D01*
X153214979Y-72330412D01*
X153204303Y-72331012D01*
X153196142Y-72329708D01*
X153189723Y-72326692D01*
X153184330Y-72322338D01*
X153181365Y-72316724D01*
X153180122Y-72307569D01*
X153179892Y-72294941D01*
X153179908Y-72284414D01*
X153179213Y-72276988D01*
X153176696Y-72272319D01*
X153171245Y-72270064D01*
X153161748Y-72269877D01*
X153147095Y-72271416D01*
X153126173Y-72274335D01*
X153117369Y-72275590D01*
X153089277Y-72280041D01*
X153067305Y-72284992D01*
X153049770Y-72291326D01*
X153034986Y-72299928D01*
X153021268Y-72311682D01*
X153006931Y-72327472D01*
X152998259Y-72338087D01*
X152969205Y-72372175D01*
X152941793Y-72399424D01*
X152915255Y-72420430D01*
X152888820Y-72435790D01*
X152861720Y-72446098D01*
X152857189Y-72447339D01*
X152839079Y-72452389D01*
X152823615Y-72457759D01*
X152809644Y-72464235D01*
X152796011Y-72472608D01*
X152781562Y-72483666D01*
X152765144Y-72498196D01*
X152745602Y-72516987D01*
X152724815Y-72537763D01*
X152701095Y-72560245D01*
X152673677Y-72583878D01*
X152645003Y-72606687D01*
X152617513Y-72626698D01*
X152602772Y-72636434D01*
X152591880Y-72643602D01*
X152584051Y-72649351D01*
X152581280Y-72652045D01*
X152577630Y-72654922D01*
X152569110Y-72660275D01*
X152557769Y-72666941D01*
X152545654Y-72673757D01*
X152534813Y-72679562D01*
X152527294Y-72683194D01*
X152525251Y-72683846D01*
X152525358Y-72680691D01*
X152527975Y-72672684D01*
X152532222Y-72662018D01*
X152537218Y-72650884D01*
X152542084Y-72641472D01*
X152542688Y-72640445D01*
X152547634Y-72632685D01*
X152555649Y-72620622D01*
X152565324Y-72606363D01*
X152569598Y-72600149D01*
X152580517Y-72582769D01*
X152589804Y-72565048D01*
X152596736Y-72548680D01*
X152600592Y-72535364D01*
X152600713Y-72526970D01*
X152597154Y-72526942D01*
X152589189Y-72530784D01*
X152579964Y-72536699D01*
X152555391Y-72553844D01*
X152535691Y-72567271D01*
X152519429Y-72577880D01*
X152505172Y-72586568D01*
X152491487Y-72594234D01*
X152476938Y-72601778D01*
X152472895Y-72603801D01*
X152454967Y-72612486D01*
X152432585Y-72622975D01*
X152408487Y-72634004D01*
X152385407Y-72644307D01*
X152383325Y-72645221D01*
X152337560Y-72666427D01*
X152297857Y-72687432D01*
X152262547Y-72709162D01*
X152242413Y-72723196D01*
X152229592Y-72732110D01*
X152218704Y-72738883D01*
X152211603Y-72742387D01*
X152210466Y-72742633D01*
X152203492Y-72744052D01*
X152192850Y-72747383D01*
X152189292Y-72748672D01*
X152177123Y-72752739D01*
X152166508Y-72755480D01*
X152164595Y-72755809D01*
X152155938Y-72758243D01*
X152151968Y-72760638D01*
X152149407Y-72766040D01*
X152145563Y-72777749D01*
X152140782Y-72794428D01*
X152135413Y-72814740D01*
X152129803Y-72837350D01*
X152124299Y-72860919D01*
X152119250Y-72884113D01*
X152117062Y-72894862D01*
X152107077Y-72950065D01*
X152099953Y-73000268D01*
X152095701Y-73045108D01*
X152094330Y-73084221D01*
X152095852Y-73117244D01*
X152100276Y-73143814D01*
X152107614Y-73163567D01*
X152109291Y-73166445D01*
X152116563Y-73174779D01*
X152127963Y-73184493D01*
X152138511Y-73191846D01*
X152158000Y-73207052D01*
X152173200Y-73226467D01*
X152173956Y-73227688D01*
X152186688Y-73245112D01*
X152204959Y-73265425D01*
X152227580Y-73287539D01*
X152253362Y-73310364D01*
X152281117Y-73332813D01*
X152309657Y-73353796D01*
X152317474Y-73359157D01*
X152345154Y-73377516D01*
X152378387Y-73399037D01*
X152416023Y-73423014D01*
X152456914Y-73448740D01*
X152499910Y-73475508D01*
X152543863Y-73502612D01*
X152587623Y-73529345D01*
X152630042Y-73554999D01*
X152669970Y-73578869D01*
X152706258Y-73600246D01*
X152737758Y-73618425D01*
X152752000Y-73626455D01*
X152773021Y-73637673D01*
X152797515Y-73649970D01*
X152821715Y-73661483D01*
X152834062Y-73667037D01*
X152862099Y-73679640D01*
X152891046Y-73693282D01*
X152919646Y-73707315D01*
X152946644Y-73721092D01*
X152970781Y-73733966D01*
X152990801Y-73745291D01*
X153005448Y-73754420D01*
X153009748Y-73757483D01*
X153023386Y-73769594D01*
X153031366Y-73781462D01*
X153033729Y-73787813D01*
X153040604Y-73808246D01*
X153050193Y-73832895D01*
X153061403Y-73859149D01*
X153073139Y-73884398D01*
X153079497Y-73897052D01*
X153087691Y-73911872D01*
X153096228Y-73924820D01*
X153106327Y-73937303D01*
X153119212Y-73950726D01*
X153136102Y-73966494D01*
X153152332Y-73980879D01*
X153174167Y-74003506D01*
X153187956Y-74024676D01*
X153200236Y-74043025D01*
X153218837Y-74062813D01*
X153242628Y-74083116D01*
X153270479Y-74103013D01*
X153301260Y-74121580D01*
X153316429Y-74129590D01*
X153346825Y-74148906D01*
X153371604Y-74173081D01*
X153390242Y-74201418D01*
X153402209Y-74233219D01*
X153405041Y-74246943D01*
X153406118Y-74260378D01*
X153403521Y-74267929D01*
X153396440Y-74270049D01*
X153384063Y-74267194D01*
X153374995Y-74263785D01*
X153343380Y-74253671D01*
X153312460Y-74248789D01*
X153286793Y-74249218D01*
X153264725Y-74248794D01*
X153239088Y-74243225D01*
X153211555Y-74233166D01*
X153183800Y-74219266D01*
X153157496Y-74202179D01*
X153148860Y-74195498D01*
X153134292Y-74183806D01*
X153119443Y-74172106D01*
X153105625Y-74161405D01*
X153094149Y-74152710D01*
X153086329Y-74147029D01*
X153083525Y-74145323D01*
X153081387Y-74148527D01*
X153077679Y-74156427D01*
X153076864Y-74158344D01*
X153066554Y-74174855D01*
X153052405Y-74184691D01*
X153034814Y-74187599D01*
X153031400Y-74187375D01*
X153008900Y-74182049D01*
X152985256Y-74171130D01*
X152962448Y-74156034D01*
X152942458Y-74138177D01*
X152927266Y-74118973D01*
X152922061Y-74109247D01*
X152917952Y-74097836D01*
X152913241Y-74081545D01*
X152908712Y-74063187D01*
X152907035Y-74055446D01*
X152896850Y-74015056D01*
X152883909Y-73980792D01*
X152867417Y-73951217D01*
X152846580Y-73924893D01*
X152822081Y-73901624D01*
X152801343Y-73884925D01*
X152774603Y-73864731D01*
X152742592Y-73841517D01*
X152706040Y-73815758D01*
X152665679Y-73787928D01*
X152622239Y-73758502D01*
X152576451Y-73727954D01*
X152529046Y-73696760D01*
X152480754Y-73665394D01*
X152432306Y-73634330D01*
X152384433Y-73604043D01*
X152337866Y-73575007D01*
X152293335Y-73547698D01*
X152251571Y-73522590D01*
X152213304Y-73500157D01*
X152179266Y-73480874D01*
X152150188Y-73465216D01*
X152150167Y-73465205D01*
X152122996Y-73452326D01*
X152091884Y-73439574D01*
X152060581Y-73428463D01*
X152054428Y-73426510D01*
X152010355Y-73412372D01*
X151973319Y-73399394D01*
X151942685Y-73387243D01*
X151917816Y-73375587D01*
X151898080Y-73364095D01*
X151882839Y-73352434D01*
X151871460Y-73340273D01*
X151863306Y-73327280D01*
X151862866Y-73326386D01*
X151858426Y-73315990D01*
X151856203Y-73306312D01*
X151855839Y-73294492D01*
X151856897Y-73278601D01*
X151858800Y-73258973D01*
X151861597Y-73233346D01*
X151865071Y-73203460D01*
X151869006Y-73171054D01*
X151873186Y-73137864D01*
X151877393Y-73105631D01*
X151881412Y-73076092D01*
X151885027Y-73050985D01*
X151886178Y-73043424D01*
X151888948Y-73024906D01*
X151891068Y-73009421D01*
X151892345Y-72998468D01*
X151892589Y-72993550D01*
X151892539Y-72993437D01*
X151889908Y-72995895D01*
X151883734Y-73003643D01*
X151874864Y-73015500D01*
X151864142Y-73030287D01*
X151852412Y-73046824D01*
X151840520Y-73063933D01*
X151829309Y-73080433D01*
X151819625Y-73095146D01*
X151819007Y-73096108D01*
X151800977Y-73125993D01*
X151786908Y-73153852D01*
X151775287Y-73183024D01*
X151765193Y-73214800D01*
X151759300Y-73234429D01*
X151754435Y-73248323D01*
X151749690Y-73258316D01*
X151744157Y-73266246D01*
X151736928Y-73273947D01*
X151735039Y-73275776D01*
X151728367Y-73282881D01*
X151722479Y-73291045D01*
X151717125Y-73301089D01*
X151712052Y-73313834D01*
X151707009Y-73330100D01*
X151701745Y-73350709D01*
X151696007Y-73376481D01*
X151689546Y-73408237D01*
X151682108Y-73446797D01*
X151681241Y-73451378D01*
X151658762Y-73574095D01*
X151639109Y-73689554D01*
X151622278Y-73797780D01*
X151608266Y-73898801D01*
X151597070Y-73992642D01*
X151588686Y-74079330D01*
X151583111Y-74158893D01*
X151580342Y-74231356D01*
X151580018Y-74258646D01*
X151579945Y-74291889D01*
X151580238Y-74318450D01*
X151581270Y-74339464D01*
X151583416Y-74356065D01*
X151587048Y-74369386D01*
X151592542Y-74380563D01*
X151600269Y-74390728D01*
X151610605Y-74401016D01*
X151623923Y-74412561D01*
X151633334Y-74420425D01*
X151649771Y-74433698D01*
X151665747Y-74445836D01*
X151679471Y-74455525D01*
X151689151Y-74461448D01*
X151689396Y-74461572D01*
X151701859Y-74466151D01*
X151720681Y-74470872D01*
X151744424Y-74475400D01*
X151758202Y-74477562D01*
X151787820Y-74482017D01*
X151810813Y-74485796D01*
X151828312Y-74489156D01*
X151841452Y-74492351D01*
X151851366Y-74495637D01*
X151859186Y-74499269D01*
X151862122Y-74500961D01*
X151872278Y-74510380D01*
X151874940Y-74521780D01*
X151870105Y-74535236D01*
X151860612Y-74547782D01*
X151851418Y-74556810D01*
X151841429Y-74563799D01*
X151829692Y-74568878D01*
X151815249Y-74572175D01*
X151797145Y-74573818D01*
X151774425Y-74573937D01*
X151746134Y-74572658D01*
X151711316Y-74570110D01*
X151700831Y-74569235D01*
X151655449Y-74565352D01*
X151617140Y-74562011D01*
X151585186Y-74559132D01*
X151558870Y-74556632D01*
X151537474Y-74554433D01*
X151520281Y-74552452D01*
X151506572Y-74550609D01*
X151495630Y-74548823D01*
X151486738Y-74547014D01*
X151479177Y-74545101D01*
X151474702Y-74543784D01*
X151454934Y-74536450D01*
X151441082Y-74527653D01*
X151431255Y-74515555D01*
X151423563Y-74498318D01*
X151421431Y-74492001D01*
X151411559Y-74467829D01*
X151398852Y-74449411D01*
X151381912Y-74434819D01*
X151378174Y-74432367D01*
X151364322Y-74419698D01*
X151352484Y-74400492D01*
X151347279Y-74388902D01*
X151343853Y-74378083D01*
X151341746Y-74365666D01*
X151340500Y-74349284D01*
X151339953Y-74335973D01*
X151339781Y-74315078D01*
X151340513Y-74293718D01*
X151341999Y-74275158D01*
X151343041Y-74267588D01*
X151344851Y-74258632D01*
X151348341Y-74242924D01*
X151353313Y-74221302D01*
X151359569Y-74194602D01*
X151366912Y-74163658D01*
X151375145Y-74129307D01*
X151384070Y-74092385D01*
X151393488Y-74053729D01*
X151395938Y-74043723D01*
X151410484Y-73984162D01*
X151423298Y-73931076D01*
X151434591Y-73883373D01*
X151444578Y-73839958D01*
X151453471Y-73799737D01*
X151461482Y-73761617D01*
X151468825Y-73724505D01*
X151475712Y-73687305D01*
X151482355Y-73648926D01*
X151488968Y-73608272D01*
X151495763Y-73564250D01*
X151502952Y-73515767D01*
X151510750Y-73461729D01*
X151515184Y-73430586D01*
X151522423Y-73379147D01*
X151528533Y-73334721D01*
X151533594Y-73296597D01*
X151537687Y-73264068D01*
X151540891Y-73236425D01*
X151543287Y-73212958D01*
X151544955Y-73192958D01*
X151545976Y-73175717D01*
X151546431Y-73160525D01*
X151546472Y-73154621D01*
X151547896Y-73115914D01*
X151551934Y-73076761D01*
X151558252Y-73038984D01*
X151566515Y-73004406D01*
X151576388Y-72974851D01*
X151581698Y-72962783D01*
X151590686Y-72947386D01*
X151601822Y-72932402D01*
X151609969Y-72923707D01*
X151642539Y-72892693D01*
X151675716Y-72858730D01*
X151708641Y-72822859D01*
X151740453Y-72786124D01*
X151770294Y-72749566D01*
X151797303Y-72714227D01*
X151820622Y-72681150D01*
X151839390Y-72651377D01*
X151848877Y-72634023D01*
X151859224Y-72613508D01*
X151787843Y-72613502D01*
X151761425Y-72613393D01*
X151741569Y-72613004D01*
X151727023Y-72612234D01*
X151716535Y-72610983D01*
X151708853Y-72609150D01*
X151702785Y-72606663D01*
X151693789Y-72601000D01*
X151688785Y-72594328D01*
X151687978Y-72585755D01*
X151691576Y-72574391D01*
X151699784Y-72559344D01*
X151712811Y-72539721D01*
X151720960Y-72528242D01*
X151731133Y-72513811D01*
X151740058Y-72500616D01*
X151746352Y-72490724D01*
X151747953Y-72487910D01*
X151753346Y-72477588D01*
X151695526Y-72494665D01*
X151666883Y-72503274D01*
X151644630Y-72510360D01*
X151627593Y-72516367D01*
X151614597Y-72521738D01*
X151604470Y-72526917D01*
X151596303Y-72532158D01*
X151584636Y-72537610D01*
X151575716Y-72536539D01*
X151570376Y-72530000D01*
X151569453Y-72519048D01*
X151573781Y-72504737D01*
X151574083Y-72504093D01*
X151580172Y-72490015D01*
X151585016Y-72476479D01*
X151587991Y-72465507D01*
X151588475Y-72459120D01*
X151588144Y-72458488D01*
X151584191Y-72459932D01*
X151574658Y-72466149D01*
X151559925Y-72476854D01*
X151540370Y-72491762D01*
X151516372Y-72510589D01*
X151488309Y-72533049D01*
X151479673Y-72540032D01*
X151458253Y-72556781D01*
X151440995Y-72568676D01*
X151426557Y-72576416D01*
X151413597Y-72580696D01*
X151400773Y-72582213D01*
X151398332Y-72582246D01*
X151386004Y-72580755D01*
X151378234Y-72575527D01*
X151376714Y-72573561D01*
X151373304Y-72567323D01*
X151371442Y-72559639D01*
X151371152Y-72549175D01*
X151372459Y-72534598D01*
X151375388Y-72514574D01*
X151378136Y-72498231D01*
X151380847Y-72480673D01*
X151382513Y-72465933D01*
X151382980Y-72455711D01*
X151382313Y-72451839D01*
X151377927Y-72452482D01*
X151368537Y-72456906D01*
X151355527Y-72464389D01*
X151343047Y-72472354D01*
X151322621Y-72485117D01*
X151306907Y-72492913D01*
X151294889Y-72496088D01*
X151285547Y-72494987D01*
X151281882Y-72493150D01*
X151275481Y-72485082D01*
X151269642Y-72469555D01*
X151264468Y-72446913D01*
X151261006Y-72424850D01*
X151258332Y-72408105D01*
X151255310Y-72394172D01*
X151252394Y-72384958D01*
X151250886Y-72382490D01*
X151247172Y-72380762D01*
X151241422Y-72380770D01*
X151232707Y-72382811D01*
X151220099Y-72387184D01*
X151202669Y-72394187D01*
X151179488Y-72404120D01*
X151168089Y-72409116D01*
X151148542Y-72417629D01*
X151134766Y-72423263D01*
X151125419Y-72426377D01*
X151119158Y-72427329D01*
X151114642Y-72426479D01*
X151110863Y-72424406D01*
X151106144Y-72419181D01*
X151098528Y-72408265D01*
X151088781Y-72392867D01*
X151077671Y-72374198D01*
X151066576Y-72354575D01*
X151049811Y-72324305D01*
X151036153Y-72299996D01*
X151025025Y-72280716D01*
X151015851Y-72265532D01*
X151008053Y-72253512D01*
X151001056Y-72243723D01*
X150994282Y-72235235D01*
X150988991Y-72229150D01*
X150979781Y-72219450D01*
X150974184Y-72215316D01*
X150971122Y-72216067D01*
X150970432Y-72217401D01*
X150968953Y-72227770D01*
X150969624Y-72244800D01*
X150972315Y-72267675D01*
X150976899Y-72295578D01*
X150983246Y-72327696D01*
X150991228Y-72363211D01*
X150997506Y-72388816D01*
X151004019Y-72416372D01*
X151009448Y-72442960D01*
X151013636Y-72467431D01*
X151016425Y-72488636D01*
X151017657Y-72505425D01*
X151017173Y-72516650D01*
X151015632Y-72520685D01*
X151010826Y-72522174D01*
X151004487Y-72517160D01*
X151003748Y-72516323D01*
X150983526Y-72492122D01*
X150963429Y-72466106D01*
X150947370Y-72444063D01*
X150936721Y-72429672D01*
X150926781Y-72417136D01*
X150918999Y-72408244D01*
X150916108Y-72405510D01*
X150907170Y-72400623D01*
X150898173Y-72398826D01*
X150891677Y-72400310D01*
X150889985Y-72403586D01*
X150891263Y-72408538D01*
X150894852Y-72419749D01*
X150900382Y-72436136D01*
X150907485Y-72456618D01*
X150915791Y-72480110D01*
X150921628Y-72496394D01*
X150936219Y-72536923D01*
X150948334Y-72570737D01*
X150958164Y-72598467D01*
X150965900Y-72620744D01*
X150971732Y-72638199D01*
X150975850Y-72651464D01*
X150978444Y-72661170D01*
X150979706Y-72667948D01*
X150979825Y-72672429D01*
X150978991Y-72675245D01*
X150977396Y-72677026D01*
X150976323Y-72677756D01*
X150970397Y-72677590D01*
X150959788Y-72674031D01*
X150946330Y-72667997D01*
X150931856Y-72660408D01*
X150918202Y-72652185D01*
X150907200Y-72644245D01*
X150904215Y-72641607D01*
X150896199Y-72633368D01*
X150884554Y-72620659D01*
X150870654Y-72605012D01*
X150855872Y-72587961D01*
X150851001Y-72582246D01*
X150833213Y-72561683D01*
X150816974Y-72543667D01*
X150803033Y-72528977D01*
X150792143Y-72518391D01*
X150785052Y-72512687D01*
X150783135Y-72511908D01*
X150781258Y-72515290D01*
X150778313Y-72523831D01*
X150776889Y-72528681D01*
X150774902Y-72538110D01*
X150774298Y-72548702D01*
X150775129Y-72562422D01*
X150777445Y-72581238D01*
X150778452Y-72588274D01*
X150791444Y-72670546D01*
X150805584Y-72747693D01*
X150819946Y-72815409D01*
X150825095Y-72838781D01*
X150829626Y-72860924D01*
X150833216Y-72880129D01*
X150835541Y-72894687D01*
X150836251Y-72901378D01*
X150836572Y-72912642D01*
X150835369Y-72917991D01*
X150831702Y-72919306D01*
X150827507Y-72918881D01*
X150809362Y-72914263D01*
X150788923Y-72905939D01*
X150769679Y-72895460D01*
X150760594Y-72889128D01*
X150750049Y-72879121D01*
X150738086Y-72865103D01*
X150727086Y-72849896D01*
X150725862Y-72847995D01*
X150712389Y-72827424D01*
X150699832Y-72809526D01*
X150688941Y-72795273D01*
X150680464Y-72785640D01*
X150675153Y-72781602D01*
X150674710Y-72781539D01*
X150669254Y-72779338D01*
X150660647Y-72773851D01*
X150657824Y-72771769D01*
X150649237Y-72765653D01*
X150643356Y-72762250D01*
X150642454Y-72762000D01*
X150641514Y-72765669D01*
X150640729Y-72775724D01*
X150640169Y-72790735D01*
X150639904Y-72809272D01*
X150639892Y-72814336D01*
X150639738Y-72836280D01*
X150639195Y-72851562D01*
X150638142Y-72861330D01*
X150636460Y-72866732D01*
X150634182Y-72868863D01*
X150629324Y-72867061D01*
X150620909Y-72860559D01*
X150610285Y-72850743D01*
X150598800Y-72839000D01*
X150587799Y-72826715D01*
X150578631Y-72815276D01*
X150572642Y-72806068D01*
X150572110Y-72804985D01*
X150566898Y-72795313D01*
X150562847Y-72789354D01*
X150557670Y-72782382D01*
X150550774Y-72772418D01*
X150549036Y-72769816D01*
X150539099Y-72758817D01*
X150528181Y-72755216D01*
X150515324Y-72758871D01*
X150507483Y-72763641D01*
X150491284Y-72771946D01*
X150477167Y-72772813D01*
X150464810Y-72766243D01*
X150461986Y-72763470D01*
X150453725Y-72752365D01*
X150443935Y-72735850D01*
X150433593Y-72715916D01*
X150423679Y-72694555D01*
X150415171Y-72673758D01*
X150409206Y-72656071D01*
X150394655Y-72602932D01*
X150383186Y-72555160D01*
X150374562Y-72511047D01*
X150368545Y-72468885D01*
X150364899Y-72426964D01*
X150363387Y-72383578D01*
X150363770Y-72337018D01*
X150363960Y-72330200D01*
X150370814Y-72227109D01*
X150385069Y-72123288D01*
X150406471Y-72019590D01*
X150434765Y-71916866D01*
X150469699Y-71815966D01*
X150511018Y-71717743D01*
X150558469Y-71623048D01*
X150592177Y-71564293D01*
X150603130Y-71546707D01*
X150616375Y-71526294D01*
X150631163Y-71504126D01*
X150646742Y-71481275D01*
X150662360Y-71458813D01*
X150677268Y-71437813D01*
X150690714Y-71419345D01*
X150701947Y-71404484D01*
X150710216Y-71394299D01*
X150713990Y-71390400D01*
X150717338Y-71386692D01*
X150724384Y-71378326D01*
X150733931Y-71366734D01*
X150740131Y-71359112D01*
X150759793Y-71335967D01*
X150783776Y-71309520D01*
X150810408Y-71281487D01*
X150838019Y-71253582D01*
X150864936Y-71227521D01*
X150889488Y-71205018D01*
X150894991Y-71200210D01*
X150909809Y-71187374D01*
X150922438Y-71176361D01*
X150931725Y-71168182D01*
X150936520Y-71163845D01*
X150936877Y-71163486D01*
X150941383Y-71159589D01*
X150950970Y-71152064D01*
X150964376Y-71141846D01*
X150980339Y-71129875D01*
X150997598Y-71117086D01*
X151014889Y-71104418D01*
X151030953Y-71092808D01*
X151044526Y-71083194D01*
X151050478Y-71079092D01*
X151134814Y-71025507D01*
X151220542Y-70978146D01*
X151306570Y-70937588D01*
X151352478Y-70918829D01*
X151424961Y-70893231D01*
X151503359Y-70869952D01*
X151586025Y-70849341D01*
X151671311Y-70831752D01*
X151757569Y-70817534D01*
X151843150Y-70807038D01*
X151900123Y-70802205D01*
X151917442Y-70800896D01*
X151933095Y-70799497D01*
X151944479Y-70798247D01*
X151947015Y-70797882D01*
X151955980Y-70797078D01*
X151971651Y-70796381D01*
X151992921Y-70795793D01*
X152018679Y-70795318D01*
X152047819Y-70794961D01*
X152079232Y-70794724D01*
X152111809Y-70794611D01*
X152144442Y-70794625D01*
X152176022Y-70794771D01*
X152205442Y-70795052D01*
X152231593Y-70795470D01*
X152253366Y-70796031D01*
X152269653Y-70796737D01*
X152271354Y-70796843D01*
X152384568Y-70806979D01*
X152497959Y-70822502D01*
X152608287Y-70842965D01*
X152611593Y-70843667D01*
X152630099Y-70847599D01*
X152647584Y-70851290D01*
X152661429Y-70854189D01*
X152666390Y-70855214D01*
X152676473Y-70857615D01*
X152691890Y-70861688D01*
X152710489Y-70866849D01*
X152728913Y-70872160D01*
X152783278Y-70888519D01*
X152831492Y-70903925D01*
X152875067Y-70918956D01*
X152915516Y-70934186D01*
X152954354Y-70950193D01*
X152993092Y-70967553D01*
X153033245Y-70986841D01*
X153043428Y-70991905D01*
X153062323Y-71001600D01*
X153082650Y-71012439D01*
X153103210Y-71023735D01*
X153122805Y-71034801D01*
X153140234Y-71044951D01*
X153154299Y-71053498D01*
X153163801Y-71059755D01*
X153167518Y-71062974D01*
X153171969Y-71066044D01*
X153172356Y-71066062D01*
X153176418Y-71068096D01*
X153185448Y-71073546D01*
X153197949Y-71081433D01*
X153212426Y-71090779D01*
X153227382Y-71100604D01*
X153241323Y-71109931D01*
X153252753Y-71117781D01*
X153260175Y-71123175D01*
X153261954Y-71124683D01*
X153266114Y-71127883D01*
X153274461Y-71133715D01*
X153279538Y-71137144D01*
X153295269Y-71147841D01*
X153312821Y-71160078D01*
X153330060Y-71172338D01*
X153344850Y-71183103D01*
X153354230Y-71190203D01*
X153371135Y-71202951D01*
X153394407Y-71219641D01*
X153423781Y-71240085D01*
X153458988Y-71264094D01*
X153461246Y-71265621D01*
X153503119Y-71291738D01*
X153544414Y-71313278D01*
X153583733Y-71329567D01*
X153611329Y-71337994D01*
X153644289Y-71342302D01*
X153679629Y-71339411D01*
X153716845Y-71329384D01*
X153735268Y-71322037D01*
X153774185Y-71302601D01*
X153806774Y-71280869D01*
X153834021Y-71255762D01*
X153856915Y-71226203D01*
X153876441Y-71191115D01*
X153893586Y-71149422D01*
X153893707Y-71149084D01*
X153905792Y-71114030D01*
X153916006Y-71081094D01*
X153924495Y-71049206D01*
X153931401Y-71017296D01*
X153936871Y-70984294D01*
X153941049Y-70949132D01*
X153944080Y-70910739D01*
X153946108Y-70868046D01*
X153947278Y-70819983D01*
X153947734Y-70765481D01*
X153947754Y-70749539D01*
X153947679Y-70715467D01*
X153947466Y-70678619D01*
X153947128Y-70639796D01*
X153946682Y-70599799D01*
X153946143Y-70559430D01*
X153945525Y-70519492D01*
X153944844Y-70480786D01*
X153944115Y-70444114D01*
X153943354Y-70410277D01*
X153942575Y-70380078D01*
X153941793Y-70354318D01*
X153941025Y-70333799D01*
X153940285Y-70319323D01*
X153939587Y-70311691D01*
X153939448Y-70311032D01*
X153938998Y-70304567D01*
X153939187Y-70291829D01*
X153939913Y-70274323D01*
X153941076Y-70253556D01*
X153942573Y-70231035D01*
X153944303Y-70208266D01*
X153946166Y-70186754D01*
X153948060Y-70168008D01*
X153949882Y-70153532D01*
X153950169Y-70151662D01*
X153961111Y-70090926D01*
X153974694Y-70029248D01*
X153990624Y-69967360D01*
X154008606Y-69905995D01*
X154028347Y-69845888D01*
X154049552Y-69787770D01*
X154071926Y-69732376D01*
X154095175Y-69680438D01*
X154119005Y-69632690D01*
X154143121Y-69589864D01*
X154167229Y-69552695D01*
X154191035Y-69521915D01*
X154211523Y-69500675D01*
X154225805Y-69488001D01*
X154236844Y-69479107D01*
X154246980Y-69472305D01*
X154258551Y-69465905D01*
X154262323Y-69463976D01*
X154292303Y-69452062D01*
X154323913Y-69446140D01*
X154358200Y-69446160D01*
G37*
X154358200Y-69446160D02*
X154396212Y-69452067D01*
X154414012Y-69456419D01*
X154467396Y-69473821D01*
X154514915Y-69495946D01*
X154557122Y-69523051D01*
X154559308Y-69524698D01*
X154585168Y-69546733D01*
X154605973Y-69570379D01*
X154623967Y-69598313D01*
X154629443Y-69608493D01*
X154645979Y-69639140D01*
X154661363Y-69664279D01*
X154676983Y-69685443D01*
X154694232Y-69704164D01*
X154714499Y-69721974D01*
X154739175Y-69740405D01*
X154765088Y-69757991D01*
X154799328Y-69781717D01*
X154828563Y-69804329D01*
X154852387Y-69825428D01*
X154870395Y-69844614D01*
X154882183Y-69861490D01*
X154887346Y-69875655D01*
X154887554Y-69878635D01*
X154885816Y-69887411D01*
X154879125Y-69891755D01*
X154877056Y-69892332D01*
X154866479Y-69893158D01*
X154849795Y-69892236D01*
X154828465Y-69889762D01*
X154803951Y-69885933D01*
X154777715Y-69880948D01*
X154754692Y-69875838D01*
X154735315Y-69871280D01*
X154716482Y-69866943D01*
X154700893Y-69863447D01*
X154694123Y-69861988D01*
X154679417Y-69858815D01*
X154665350Y-69855622D01*
X154660908Y-69854561D01*
X154653780Y-69853023D01*
X154644881Y-69851571D01*
X154632870Y-69850043D01*
X154616401Y-69848276D01*
X154594133Y-69846108D01*
X154580960Y-69844874D01*
X154570453Y-69845053D01*
X154553948Y-69846705D01*
X154533064Y-69849563D01*
X154509422Y-69853358D01*
X154484642Y-69857825D01*
X154460345Y-69862694D01*
X154438150Y-69867698D01*
X154429254Y-69869930D01*
X154390805Y-69882573D01*
X154356455Y-69899115D01*
X154327120Y-69918948D01*
X154303716Y-69941465D01*
X154288581Y-69963332D01*
X154284167Y-69973268D01*
X154278198Y-69989204D01*
X154271170Y-70009596D01*
X154263578Y-70032902D01*
X154255918Y-70057579D01*
X154248685Y-70082086D01*
X154242375Y-70104879D01*
X154239386Y-70116493D01*
X154230105Y-70158982D01*
X154221647Y-70207999D01*
X154214188Y-70262280D01*
X154207902Y-70320563D01*
X154203327Y-70376354D01*
X154201888Y-70403022D01*
X154200859Y-70435253D01*
X154200219Y-70472097D01*
X154199947Y-70512603D01*
X154200023Y-70555821D01*
X154200425Y-70600802D01*
X154201133Y-70646595D01*
X154202125Y-70692250D01*
X154203381Y-70736817D01*
X154204880Y-70779346D01*
X154206601Y-70818887D01*
X154208523Y-70854489D01*
X154210626Y-70885204D01*
X154212887Y-70910080D01*
X154215288Y-70928167D01*
X154215485Y-70929293D01*
X154222068Y-70965074D01*
X154227958Y-70994589D01*
X154233607Y-71019302D01*
X154239467Y-71040676D01*
X154245991Y-71060178D01*
X154253630Y-71079270D01*
X154262837Y-71099418D01*
X154274065Y-71122085D01*
X154276502Y-71126873D01*
X154288781Y-71150122D01*
X154301910Y-71173261D01*
X154316476Y-71197171D01*
X154333068Y-71222733D01*
X154352272Y-71250829D01*
X154374677Y-71282339D01*
X154400871Y-71318147D01*
X154430894Y-71358403D01*
X154449185Y-71382980D01*
X154466518Y-71406688D01*
X154482157Y-71428488D01*
X154495366Y-71447340D01*
X154505407Y-71462204D01*
X154511543Y-71472040D01*
X154512046Y-71472952D01*
X154517749Y-71485363D01*
X154524652Y-71503117D01*
X154531951Y-71524003D01*
X154538841Y-71545809D01*
X154539944Y-71549550D01*
X154549921Y-71588343D01*
X154557104Y-71627350D01*
X154561729Y-71668533D01*
X154564035Y-71713856D01*
X154564383Y-71751862D01*
X154564158Y-71774217D01*
X154563552Y-71790832D01*
X154562266Y-71803782D01*
X154560001Y-71815141D01*
X154556457Y-71826985D01*
X154551565Y-71840762D01*
X154543914Y-71859727D01*
X154537390Y-71871201D01*
X154531596Y-71875355D01*
X154526134Y-71872362D01*
X154520608Y-71862396D01*
X154517897Y-71855416D01*
X154513550Y-71844511D01*
X154509905Y-71837419D01*
X154508385Y-71835877D01*
X154504098Y-71839162D01*
X154497324Y-71848051D01*
X154488943Y-71861090D01*
X154479831Y-71876829D01*
X154470865Y-71893815D01*
X154462924Y-71910597D01*
X154462145Y-71912379D01*
X154453131Y-71933121D01*
X154446482Y-71947898D01*
X154441480Y-71957931D01*
X154437410Y-71964437D01*
X154433554Y-71968637D01*
X154429198Y-71971749D01*
X154426222Y-71973498D01*
X154418188Y-71977627D01*
X154413658Y-71977308D01*
X154409463Y-71972156D01*
X154408968Y-71971403D01*
X154405695Y-71962163D01*
X154403086Y-71945776D01*
X154401241Y-71922887D01*
X154401103Y-71920285D01*
X154400034Y-71902687D01*
X154398810Y-71887959D01*
X154397598Y-71877869D01*
X154396756Y-71874336D01*
X154393179Y-71873641D01*
X154388200Y-71879011D01*
X154382659Y-71889022D01*
X154377395Y-71902252D01*
X154374471Y-71912093D01*
X154364935Y-71942529D01*
X154353604Y-71966158D01*
X154340050Y-71983867D01*
X154339934Y-71983985D01*
X154326716Y-71994826D01*
X154310458Y-72004586D01*
X154293849Y-72011913D01*
X154279579Y-72015455D01*
X154277024Y-72015593D01*
X154270980Y-72016761D01*
X154264498Y-72020948D01*
X154256349Y-72029244D01*
X154245304Y-72042736D01*
X154242825Y-72045916D01*
X154225354Y-72068210D01*
X154211611Y-72085084D01*
X154200703Y-72097423D01*
X154191740Y-72106111D01*
X154183830Y-72112033D01*
X154176081Y-72116074D01*
X154169729Y-72118437D01*
X154157939Y-72121776D01*
X154150722Y-72121397D01*
X154146538Y-72116114D01*
X154143847Y-72104743D01*
X154142766Y-72097693D01*
X154140138Y-72082740D01*
X154137118Y-72075233D01*
X154132820Y-72074815D01*
X154126355Y-72081133D01*
X154120489Y-72088792D01*
X154110950Y-72100525D01*
X154097941Y-72114889D01*
X154083825Y-72129310D01*
X154079522Y-72133457D01*
X154053911Y-72156324D01*
X154032317Y-72172564D01*
X154014669Y-72182207D01*
X154000898Y-72185287D01*
X153990931Y-72181835D01*
X153986328Y-72175846D01*
X153981643Y-72165467D01*
X153978970Y-72158262D01*
X153977153Y-72154901D01*
X153973992Y-72155196D01*
X153968318Y-72159870D01*
X153958959Y-72169648D01*
X153956854Y-72171939D01*
X153945928Y-72184268D01*
X153932214Y-72200322D01*
X153917759Y-72217683D01*
X153908672Y-72228851D01*
X153882391Y-72259566D01*
X153858295Y-72283453D01*
X153835769Y-72300981D01*
X153814195Y-72312619D01*
X153792958Y-72318833D01*
X153789497Y-72319363D01*
X153778610Y-72319971D01*
X153773054Y-72317648D01*
X153771602Y-72315183D01*
X153771586Y-72309521D01*
X153772983Y-72297524D01*
X153775591Y-72280505D01*
X153779210Y-72259775D01*
X153783636Y-72236648D01*
X153783724Y-72236212D01*
X153789593Y-72205806D01*
X153793398Y-72182852D01*
X153794918Y-72167209D01*
X153793931Y-72158733D01*
X153790213Y-72157283D01*
X153783542Y-72162714D01*
X153773696Y-72174885D01*
X153760453Y-72193653D01*
X153747497Y-72212969D01*
X153728923Y-72240464D01*
X153713321Y-72262219D01*
X153699789Y-72279281D01*
X153687429Y-72292700D01*
X153675341Y-72303525D01*
X153662623Y-72312805D01*
X153660802Y-72314001D01*
X153642043Y-72325715D01*
X153626483Y-72334084D01*
X153611142Y-72340545D01*
X153594108Y-72346213D01*
X153579203Y-72350330D01*
X153569951Y-72351197D01*
X153564725Y-72348412D01*
X153561897Y-72341567D01*
X153561150Y-72338016D01*
X153558582Y-72328999D01*
X153555574Y-72324465D01*
X153555073Y-72324339D01*
X153550325Y-72325511D01*
X153539524Y-72328744D01*
X153524031Y-72333615D01*
X153505201Y-72339700D01*
X153493652Y-72343498D01*
X153462135Y-72353665D01*
X153436834Y-72361161D01*
X153416696Y-72366194D01*
X153400671Y-72368972D01*
X153387709Y-72369702D01*
X153376757Y-72368592D01*
X153372137Y-72367530D01*
X153362156Y-72363983D01*
X153356343Y-72360255D01*
X153355738Y-72358982D01*
X153356921Y-72351664D01*
X153359990Y-72339446D01*
X153364222Y-72324795D01*
X153368898Y-72310178D01*
X153373295Y-72298062D01*
X153374157Y-72295968D01*
X153377537Y-72286249D01*
X153378394Y-72279805D01*
X153378015Y-72278882D01*
X153373630Y-72279228D01*
X153363510Y-72281965D01*
X153349195Y-72286629D01*
X153333442Y-72292299D01*
X153298466Y-72305227D01*
X153269913Y-72315315D01*
X153247002Y-72322751D01*
X153228951Y-72327721D01*
X153214979Y-72330412D01*
X153204303Y-72331012D01*
X153196142Y-72329708D01*
X153189723Y-72326692D01*
X153184330Y-72322338D01*
X153181365Y-72316724D01*
X153180122Y-72307569D01*
X153179892Y-72294941D01*
X153179908Y-72284414D01*
X153179213Y-72276988D01*
X153176696Y-72272319D01*
X153171245Y-72270064D01*
X153161748Y-72269877D01*
X153147095Y-72271416D01*
X153126173Y-72274335D01*
X153117369Y-72275590D01*
X153089277Y-72280041D01*
X153067305Y-72284992D01*
X153049770Y-72291326D01*
X153034986Y-72299928D01*
X153021268Y-72311682D01*
X153006931Y-72327472D01*
X152998259Y-72338087D01*
X152969205Y-72372175D01*
X152941793Y-72399424D01*
X152915255Y-72420430D01*
X152888820Y-72435790D01*
X152861720Y-72446098D01*
X152857189Y-72447339D01*
X152839079Y-72452389D01*
X152823615Y-72457759D01*
X152809644Y-72464235D01*
X152796011Y-72472608D01*
X152781562Y-72483666D01*
X152765144Y-72498196D01*
X152745602Y-72516987D01*
X152724815Y-72537763D01*
X152701095Y-72560245D01*
X152673677Y-72583878D01*
X152645003Y-72606687D01*
X152617513Y-72626698D01*
X152602772Y-72636434D01*
X152591880Y-72643602D01*
X152584051Y-72649351D01*
X152581280Y-72652045D01*
X152577630Y-72654922D01*
X152569110Y-72660275D01*
X152557769Y-72666941D01*
X152545654Y-72673757D01*
X152534813Y-72679562D01*
X152527294Y-72683194D01*
X152525251Y-72683846D01*
X152525358Y-72680691D01*
X152527975Y-72672684D01*
X152532222Y-72662018D01*
X152537218Y-72650884D01*
X152542084Y-72641472D01*
X152542688Y-72640445D01*
X152547634Y-72632685D01*
X152555649Y-72620622D01*
X152565324Y-72606363D01*
X152569598Y-72600149D01*
X152580517Y-72582769D01*
X152589804Y-72565048D01*
X152596736Y-72548680D01*
X152600592Y-72535364D01*
X152600713Y-72526970D01*
X152597154Y-72526942D01*
X152589189Y-72530784D01*
X152579964Y-72536699D01*
X152555391Y-72553844D01*
X152535691Y-72567271D01*
X152519429Y-72577880D01*
X152505172Y-72586568D01*
X152491487Y-72594234D01*
X152476938Y-72601778D01*
X152472895Y-72603801D01*
X152454967Y-72612486D01*
X152432585Y-72622975D01*
X152408487Y-72634004D01*
X152385407Y-72644307D01*
X152383325Y-72645221D01*
X152337560Y-72666427D01*
X152297857Y-72687432D01*
X152262547Y-72709162D01*
X152242413Y-72723196D01*
X152229592Y-72732110D01*
X152218704Y-72738883D01*
X152211603Y-72742387D01*
X152210466Y-72742633D01*
X152203492Y-72744052D01*
X152192850Y-72747383D01*
X152189292Y-72748672D01*
X152177123Y-72752739D01*
X152166508Y-72755480D01*
X152164595Y-72755809D01*
X152155938Y-72758243D01*
X152151968Y-72760638D01*
X152149407Y-72766040D01*
X152145563Y-72777749D01*
X152140782Y-72794428D01*
X152135413Y-72814740D01*
X152129803Y-72837350D01*
X152124299Y-72860919D01*
X152119250Y-72884113D01*
X152117062Y-72894862D01*
X152107077Y-72950065D01*
X152099953Y-73000268D01*
X152095701Y-73045108D01*
X152094330Y-73084221D01*
X152095852Y-73117244D01*
X152100276Y-73143814D01*
X152107614Y-73163567D01*
X152109291Y-73166445D01*
X152116563Y-73174779D01*
X152127963Y-73184493D01*
X152138511Y-73191846D01*
X152158000Y-73207052D01*
X152173200Y-73226467D01*
X152173956Y-73227688D01*
X152186688Y-73245112D01*
X152204959Y-73265425D01*
X152227580Y-73287539D01*
X152253362Y-73310364D01*
X152281117Y-73332813D01*
X152309657Y-73353796D01*
X152317474Y-73359157D01*
X152345154Y-73377516D01*
X152378387Y-73399037D01*
X152416023Y-73423014D01*
X152456914Y-73448740D01*
X152499910Y-73475508D01*
X152543863Y-73502612D01*
X152587623Y-73529345D01*
X152630042Y-73554999D01*
X152669970Y-73578869D01*
X152706258Y-73600246D01*
X152737758Y-73618425D01*
X152752000Y-73626455D01*
X152773021Y-73637673D01*
X152797515Y-73649970D01*
X152821715Y-73661483D01*
X152834062Y-73667037D01*
X152862099Y-73679640D01*
X152891046Y-73693282D01*
X152919646Y-73707315D01*
X152946644Y-73721092D01*
X152970781Y-73733966D01*
X152990801Y-73745291D01*
X153005448Y-73754420D01*
X153009748Y-73757483D01*
X153023386Y-73769594D01*
X153031366Y-73781462D01*
X153033729Y-73787813D01*
X153040604Y-73808246D01*
X153050193Y-73832895D01*
X153061403Y-73859149D01*
X153073139Y-73884398D01*
X153079497Y-73897052D01*
X153087691Y-73911872D01*
X153096228Y-73924820D01*
X153106327Y-73937303D01*
X153119212Y-73950726D01*
X153136102Y-73966494D01*
X153152332Y-73980879D01*
X153174167Y-74003506D01*
X153187956Y-74024676D01*
X153200236Y-74043025D01*
X153218837Y-74062813D01*
X153242628Y-74083116D01*
X153270479Y-74103013D01*
X153301260Y-74121580D01*
X153316429Y-74129590D01*
X153346825Y-74148906D01*
X153371604Y-74173081D01*
X153390242Y-74201418D01*
X153402209Y-74233219D01*
X153405041Y-74246943D01*
X153406118Y-74260378D01*
X153403521Y-74267929D01*
X153396440Y-74270049D01*
X153384063Y-74267194D01*
X153374995Y-74263785D01*
X153343380Y-74253671D01*
X153312460Y-74248789D01*
X153286793Y-74249218D01*
X153264725Y-74248794D01*
X153239088Y-74243225D01*
X153211555Y-74233166D01*
X153183800Y-74219266D01*
X153157496Y-74202179D01*
X153148860Y-74195498D01*
X153134292Y-74183806D01*
X153119443Y-74172106D01*
X153105625Y-74161405D01*
X153094149Y-74152710D01*
X153086329Y-74147029D01*
X153083525Y-74145323D01*
X153081387Y-74148527D01*
X153077679Y-74156427D01*
X153076864Y-74158344D01*
X153066554Y-74174855D01*
X153052405Y-74184691D01*
X153034814Y-74187599D01*
X153031400Y-74187375D01*
X153008900Y-74182049D01*
X152985256Y-74171130D01*
X152962448Y-74156034D01*
X152942458Y-74138177D01*
X152927266Y-74118973D01*
X152922061Y-74109247D01*
X152917952Y-74097836D01*
X152913241Y-74081545D01*
X152908712Y-74063187D01*
X152907035Y-74055446D01*
X152896850Y-74015056D01*
X152883909Y-73980792D01*
X152867417Y-73951217D01*
X152846580Y-73924893D01*
X152822081Y-73901624D01*
X152801343Y-73884925D01*
X152774603Y-73864731D01*
X152742592Y-73841517D01*
X152706040Y-73815758D01*
X152665679Y-73787928D01*
X152622239Y-73758502D01*
X152576451Y-73727954D01*
X152529046Y-73696760D01*
X152480754Y-73665394D01*
X152432306Y-73634330D01*
X152384433Y-73604043D01*
X152337866Y-73575007D01*
X152293335Y-73547698D01*
X152251571Y-73522590D01*
X152213304Y-73500157D01*
X152179266Y-73480874D01*
X152150188Y-73465216D01*
X152150167Y-73465205D01*
X152122996Y-73452326D01*
X152091884Y-73439574D01*
X152060581Y-73428463D01*
X152054428Y-73426510D01*
X152010355Y-73412372D01*
X151973319Y-73399394D01*
X151942685Y-73387243D01*
X151917816Y-73375587D01*
X151898080Y-73364095D01*
X151882839Y-73352434D01*
X151871460Y-73340273D01*
X151863306Y-73327280D01*
X151862866Y-73326386D01*
X151858426Y-73315990D01*
X151856203Y-73306312D01*
X151855839Y-73294492D01*
X151856897Y-73278601D01*
X151858800Y-73258973D01*
X151861597Y-73233346D01*
X151865071Y-73203460D01*
X151869006Y-73171054D01*
X151873186Y-73137864D01*
X151877393Y-73105631D01*
X151881412Y-73076092D01*
X151885027Y-73050985D01*
X151886178Y-73043424D01*
X151888948Y-73024906D01*
X151891068Y-73009421D01*
X151892345Y-72998468D01*
X151892589Y-72993550D01*
X151892539Y-72993437D01*
X151889908Y-72995895D01*
X151883734Y-73003643D01*
X151874864Y-73015500D01*
X151864142Y-73030287D01*
X151852412Y-73046824D01*
X151840520Y-73063933D01*
X151829309Y-73080433D01*
X151819625Y-73095146D01*
X151819007Y-73096108D01*
X151800977Y-73125993D01*
X151786908Y-73153852D01*
X151775287Y-73183024D01*
X151765193Y-73214800D01*
X151759300Y-73234429D01*
X151754435Y-73248323D01*
X151749690Y-73258316D01*
X151744157Y-73266246D01*
X151736928Y-73273947D01*
X151735039Y-73275776D01*
X151728367Y-73282881D01*
X151722479Y-73291045D01*
X151717125Y-73301089D01*
X151712052Y-73313834D01*
X151707009Y-73330100D01*
X151701745Y-73350709D01*
X151696007Y-73376481D01*
X151689546Y-73408237D01*
X151682108Y-73446797D01*
X151681241Y-73451378D01*
X151658762Y-73574095D01*
X151639109Y-73689554D01*
X151622278Y-73797780D01*
X151608266Y-73898801D01*
X151597070Y-73992642D01*
X151588686Y-74079330D01*
X151583111Y-74158893D01*
X151580342Y-74231356D01*
X151580018Y-74258646D01*
X151579945Y-74291889D01*
X151580238Y-74318450D01*
X151581270Y-74339464D01*
X151583416Y-74356065D01*
X151587048Y-74369386D01*
X151592542Y-74380563D01*
X151600269Y-74390728D01*
X151610605Y-74401016D01*
X151623923Y-74412561D01*
X151633334Y-74420425D01*
X151649771Y-74433698D01*
X151665747Y-74445836D01*
X151679471Y-74455525D01*
X151689151Y-74461448D01*
X151689396Y-74461572D01*
X151701859Y-74466151D01*
X151720681Y-74470872D01*
X151744424Y-74475400D01*
X151758202Y-74477562D01*
X151787820Y-74482017D01*
X151810813Y-74485796D01*
X151828312Y-74489156D01*
X151841452Y-74492351D01*
X151851366Y-74495637D01*
X151859186Y-74499269D01*
X151862122Y-74500961D01*
X151872278Y-74510380D01*
X151874940Y-74521780D01*
X151870105Y-74535236D01*
X151860612Y-74547782D01*
X151851418Y-74556810D01*
X151841429Y-74563799D01*
X151829692Y-74568878D01*
X151815249Y-74572175D01*
X151797145Y-74573818D01*
X151774425Y-74573937D01*
X151746134Y-74572658D01*
X151711316Y-74570110D01*
X151700831Y-74569235D01*
X151655449Y-74565352D01*
X151617140Y-74562011D01*
X151585186Y-74559132D01*
X151558870Y-74556632D01*
X151537474Y-74554433D01*
X151520281Y-74552452D01*
X151506572Y-74550609D01*
X151495630Y-74548823D01*
X151486738Y-74547014D01*
X151479177Y-74545101D01*
X151474702Y-74543784D01*
X151454934Y-74536450D01*
X151441082Y-74527653D01*
X151431255Y-74515555D01*
X151423563Y-74498318D01*
X151421431Y-74492001D01*
X151411559Y-74467829D01*
X151398852Y-74449411D01*
X151381912Y-74434819D01*
X151378174Y-74432367D01*
X151364322Y-74419698D01*
X151352484Y-74400492D01*
X151347279Y-74388902D01*
X151343853Y-74378083D01*
X151341746Y-74365666D01*
X151340500Y-74349284D01*
X151339953Y-74335973D01*
X151339781Y-74315078D01*
X151340513Y-74293718D01*
X151341999Y-74275158D01*
X151343041Y-74267588D01*
X151344851Y-74258632D01*
X151348341Y-74242924D01*
X151353313Y-74221302D01*
X151359569Y-74194602D01*
X151366912Y-74163658D01*
X151375145Y-74129307D01*
X151384070Y-74092385D01*
X151393488Y-74053729D01*
X151395938Y-74043723D01*
X151410484Y-73984162D01*
X151423298Y-73931076D01*
X151434591Y-73883373D01*
X151444578Y-73839958D01*
X151453471Y-73799737D01*
X151461482Y-73761617D01*
X151468825Y-73724505D01*
X151475712Y-73687305D01*
X151482355Y-73648926D01*
X151488968Y-73608272D01*
X151495763Y-73564250D01*
X151502952Y-73515767D01*
X151510750Y-73461729D01*
X151515184Y-73430586D01*
X151522423Y-73379147D01*
X151528533Y-73334721D01*
X151533594Y-73296597D01*
X151537687Y-73264068D01*
X151540891Y-73236425D01*
X151543287Y-73212958D01*
X151544955Y-73192958D01*
X151545976Y-73175717D01*
X151546431Y-73160525D01*
X151546472Y-73154621D01*
X151547896Y-73115914D01*
X151551934Y-73076761D01*
X151558252Y-73038984D01*
X151566515Y-73004406D01*
X151576388Y-72974851D01*
X151581698Y-72962783D01*
X151590686Y-72947386D01*
X151601822Y-72932402D01*
X151609969Y-72923707D01*
X151642539Y-72892693D01*
X151675716Y-72858730D01*
X151708641Y-72822859D01*
X151740453Y-72786124D01*
X151770294Y-72749566D01*
X151797303Y-72714227D01*
X151820622Y-72681150D01*
X151839390Y-72651377D01*
X151848877Y-72634023D01*
X151859224Y-72613508D01*
X151787843Y-72613502D01*
X151761425Y-72613393D01*
X151741569Y-72613004D01*
X151727023Y-72612234D01*
X151716535Y-72610983D01*
X151708853Y-72609150D01*
X151702785Y-72606663D01*
X151693789Y-72601000D01*
X151688785Y-72594328D01*
X151687978Y-72585755D01*
X151691576Y-72574391D01*
X151699784Y-72559344D01*
X151712811Y-72539721D01*
X151720960Y-72528242D01*
X151731133Y-72513811D01*
X151740058Y-72500616D01*
X151746352Y-72490724D01*
X151747953Y-72487910D01*
X151753346Y-72477588D01*
X151695526Y-72494665D01*
X151666883Y-72503274D01*
X151644630Y-72510360D01*
X151627593Y-72516367D01*
X151614597Y-72521738D01*
X151604470Y-72526917D01*
X151596303Y-72532158D01*
X151584636Y-72537610D01*
X151575716Y-72536539D01*
X151570376Y-72530000D01*
X151569453Y-72519048D01*
X151573781Y-72504737D01*
X151574083Y-72504093D01*
X151580172Y-72490015D01*
X151585016Y-72476479D01*
X151587991Y-72465507D01*
X151588475Y-72459120D01*
X151588144Y-72458488D01*
X151584191Y-72459932D01*
X151574658Y-72466149D01*
X151559925Y-72476854D01*
X151540370Y-72491762D01*
X151516372Y-72510589D01*
X151488309Y-72533049D01*
X151479673Y-72540032D01*
X151458253Y-72556781D01*
X151440995Y-72568676D01*
X151426557Y-72576416D01*
X151413597Y-72580696D01*
X151400773Y-72582213D01*
X151398332Y-72582246D01*
X151386004Y-72580755D01*
X151378234Y-72575527D01*
X151376714Y-72573561D01*
X151373304Y-72567323D01*
X151371442Y-72559639D01*
X151371152Y-72549175D01*
X151372459Y-72534598D01*
X151375388Y-72514574D01*
X151378136Y-72498231D01*
X151380847Y-72480673D01*
X151382513Y-72465933D01*
X151382980Y-72455711D01*
X151382313Y-72451839D01*
X151377927Y-72452482D01*
X151368537Y-72456906D01*
X151355527Y-72464389D01*
X151343047Y-72472354D01*
X151322621Y-72485117D01*
X151306907Y-72492913D01*
X151294889Y-72496088D01*
X151285547Y-72494987D01*
X151281882Y-72493150D01*
X151275481Y-72485082D01*
X151269642Y-72469555D01*
X151264468Y-72446913D01*
X151261006Y-72424850D01*
X151258332Y-72408105D01*
X151255310Y-72394172D01*
X151252394Y-72384958D01*
X151250886Y-72382490D01*
X151247172Y-72380762D01*
X151241422Y-72380770D01*
X151232707Y-72382811D01*
X151220099Y-72387184D01*
X151202669Y-72394187D01*
X151179488Y-72404120D01*
X151168089Y-72409116D01*
X151148542Y-72417629D01*
X151134766Y-72423263D01*
X151125419Y-72426377D01*
X151119158Y-72427329D01*
X151114642Y-72426479D01*
X151110863Y-72424406D01*
X151106144Y-72419181D01*
X151098528Y-72408265D01*
X151088781Y-72392867D01*
X151077671Y-72374198D01*
X151066576Y-72354575D01*
X151049811Y-72324305D01*
X151036153Y-72299996D01*
X151025025Y-72280716D01*
X151015851Y-72265532D01*
X151008053Y-72253512D01*
X151001056Y-72243723D01*
X150994282Y-72235235D01*
X150988991Y-72229150D01*
X150979781Y-72219450D01*
X150974184Y-72215316D01*
X150971122Y-72216067D01*
X150970432Y-72217401D01*
X150968953Y-72227770D01*
X150969624Y-72244800D01*
X150972315Y-72267675D01*
X150976899Y-72295578D01*
X150983246Y-72327696D01*
X150991228Y-72363211D01*
X150997506Y-72388816D01*
X151004019Y-72416372D01*
X151009448Y-72442960D01*
X151013636Y-72467431D01*
X151016425Y-72488636D01*
X151017657Y-72505425D01*
X151017173Y-72516650D01*
X151015632Y-72520685D01*
X151010826Y-72522174D01*
X151004487Y-72517160D01*
X151003748Y-72516323D01*
X150983526Y-72492122D01*
X150963429Y-72466106D01*
X150947370Y-72444063D01*
X150936721Y-72429672D01*
X150926781Y-72417136D01*
X150918999Y-72408244D01*
X150916108Y-72405510D01*
X150907170Y-72400623D01*
X150898173Y-72398826D01*
X150891677Y-72400310D01*
X150889985Y-72403586D01*
X150891263Y-72408538D01*
X150894852Y-72419749D01*
X150900382Y-72436136D01*
X150907485Y-72456618D01*
X150915791Y-72480110D01*
X150921628Y-72496394D01*
X150936219Y-72536923D01*
X150948334Y-72570737D01*
X150958164Y-72598467D01*
X150965900Y-72620744D01*
X150971732Y-72638199D01*
X150975850Y-72651464D01*
X150978444Y-72661170D01*
X150979706Y-72667948D01*
X150979825Y-72672429D01*
X150978991Y-72675245D01*
X150977396Y-72677026D01*
X150976323Y-72677756D01*
X150970397Y-72677590D01*
X150959788Y-72674031D01*
X150946330Y-72667997D01*
X150931856Y-72660408D01*
X150918202Y-72652185D01*
X150907200Y-72644245D01*
X150904215Y-72641607D01*
X150896199Y-72633368D01*
X150884554Y-72620659D01*
X150870654Y-72605012D01*
X150855872Y-72587961D01*
X150851001Y-72582246D01*
X150833213Y-72561683D01*
X150816974Y-72543667D01*
X150803033Y-72528977D01*
X150792143Y-72518391D01*
X150785052Y-72512687D01*
X150783135Y-72511908D01*
X150781258Y-72515290D01*
X150778313Y-72523831D01*
X150776889Y-72528681D01*
X150774902Y-72538110D01*
X150774298Y-72548702D01*
X150775129Y-72562422D01*
X150777445Y-72581238D01*
X150778452Y-72588274D01*
X150791444Y-72670546D01*
X150805584Y-72747693D01*
X150819946Y-72815409D01*
X150825095Y-72838781D01*
X150829626Y-72860924D01*
X150833216Y-72880129D01*
X150835541Y-72894687D01*
X150836251Y-72901378D01*
X150836572Y-72912642D01*
X150835369Y-72917991D01*
X150831702Y-72919306D01*
X150827507Y-72918881D01*
X150809362Y-72914263D01*
X150788923Y-72905939D01*
X150769679Y-72895460D01*
X150760594Y-72889128D01*
X150750049Y-72879121D01*
X150738086Y-72865103D01*
X150727086Y-72849896D01*
X150725862Y-72847995D01*
X150712389Y-72827424D01*
X150699832Y-72809526D01*
X150688941Y-72795273D01*
X150680464Y-72785640D01*
X150675153Y-72781602D01*
X150674710Y-72781539D01*
X150669254Y-72779338D01*
X150660647Y-72773851D01*
X150657824Y-72771769D01*
X150649237Y-72765653D01*
X150643356Y-72762250D01*
X150642454Y-72762000D01*
X150641514Y-72765669D01*
X150640729Y-72775724D01*
X150640169Y-72790735D01*
X150639904Y-72809272D01*
X150639892Y-72814336D01*
X150639738Y-72836280D01*
X150639195Y-72851562D01*
X150638142Y-72861330D01*
X150636460Y-72866732D01*
X150634182Y-72868863D01*
X150629324Y-72867061D01*
X150620909Y-72860559D01*
X150610285Y-72850743D01*
X150598800Y-72839000D01*
X150587799Y-72826715D01*
X150578631Y-72815276D01*
X150572642Y-72806068D01*
X150572110Y-72804985D01*
X150566898Y-72795313D01*
X150562847Y-72789354D01*
X150557670Y-72782382D01*
X150550774Y-72772418D01*
X150549036Y-72769816D01*
X150539099Y-72758817D01*
X150528181Y-72755216D01*
X150515324Y-72758871D01*
X150507483Y-72763641D01*
X150491284Y-72771946D01*
X150477167Y-72772813D01*
X150464810Y-72766243D01*
X150461986Y-72763470D01*
X150453725Y-72752365D01*
X150443935Y-72735850D01*
X150433593Y-72715916D01*
X150423679Y-72694555D01*
X150415171Y-72673758D01*
X150409206Y-72656071D01*
X150394655Y-72602932D01*
X150383186Y-72555160D01*
X150374562Y-72511047D01*
X150368545Y-72468885D01*
X150364899Y-72426964D01*
X150363387Y-72383578D01*
X150363770Y-72337018D01*
X150363960Y-72330200D01*
X150370814Y-72227109D01*
X150385069Y-72123288D01*
X150406471Y-72019590D01*
X150434765Y-71916866D01*
X150469699Y-71815966D01*
X150511018Y-71717743D01*
X150558469Y-71623048D01*
X150592177Y-71564293D01*
X150603130Y-71546707D01*
X150616375Y-71526294D01*
X150631163Y-71504126D01*
X150646742Y-71481275D01*
X150662360Y-71458813D01*
X150677268Y-71437813D01*
X150690714Y-71419345D01*
X150701947Y-71404484D01*
X150710216Y-71394299D01*
X150713990Y-71390400D01*
X150717338Y-71386692D01*
X150724384Y-71378326D01*
X150733931Y-71366734D01*
X150740131Y-71359112D01*
X150759793Y-71335967D01*
X150783776Y-71309520D01*
X150810408Y-71281487D01*
X150838019Y-71253582D01*
X150864936Y-71227521D01*
X150889488Y-71205018D01*
X150894991Y-71200210D01*
X150909809Y-71187374D01*
X150922438Y-71176361D01*
X150931725Y-71168182D01*
X150936520Y-71163845D01*
X150936877Y-71163486D01*
X150941383Y-71159589D01*
X150950970Y-71152064D01*
X150964376Y-71141846D01*
X150980339Y-71129875D01*
X150997598Y-71117086D01*
X151014889Y-71104418D01*
X151030953Y-71092808D01*
X151044526Y-71083194D01*
X151050478Y-71079092D01*
X151134814Y-71025507D01*
X151220542Y-70978146D01*
X151306570Y-70937588D01*
X151352478Y-70918829D01*
X151424961Y-70893231D01*
X151503359Y-70869952D01*
X151586025Y-70849341D01*
X151671311Y-70831752D01*
X151757569Y-70817534D01*
X151843150Y-70807038D01*
X151900123Y-70802205D01*
X151917442Y-70800896D01*
X151933095Y-70799497D01*
X151944479Y-70798247D01*
X151947015Y-70797882D01*
X151955980Y-70797078D01*
X151971651Y-70796381D01*
X151992921Y-70795793D01*
X152018679Y-70795318D01*
X152047819Y-70794961D01*
X152079232Y-70794724D01*
X152111809Y-70794611D01*
X152144442Y-70794625D01*
X152176022Y-70794771D01*
X152205442Y-70795052D01*
X152231593Y-70795470D01*
X152253366Y-70796031D01*
X152269653Y-70796737D01*
X152271354Y-70796843D01*
X152384568Y-70806979D01*
X152497959Y-70822502D01*
X152608287Y-70842965D01*
X152611593Y-70843667D01*
X152630099Y-70847599D01*
X152647584Y-70851290D01*
X152661429Y-70854189D01*
X152666390Y-70855214D01*
X152676473Y-70857615D01*
X152691890Y-70861688D01*
X152710489Y-70866849D01*
X152728913Y-70872160D01*
X152783278Y-70888519D01*
X152831492Y-70903925D01*
X152875067Y-70918956D01*
X152915516Y-70934186D01*
X152954354Y-70950193D01*
X152993092Y-70967553D01*
X153033245Y-70986841D01*
X153043428Y-70991905D01*
X153062323Y-71001600D01*
X153082650Y-71012439D01*
X153103210Y-71023735D01*
X153122805Y-71034801D01*
X153140234Y-71044951D01*
X153154299Y-71053498D01*
X153163801Y-71059755D01*
X153167518Y-71062974D01*
X153171969Y-71066044D01*
X153172356Y-71066062D01*
X153176418Y-71068096D01*
X153185448Y-71073546D01*
X153197949Y-71081433D01*
X153212426Y-71090779D01*
X153227382Y-71100604D01*
X153241323Y-71109931D01*
X153252753Y-71117781D01*
X153260175Y-71123175D01*
X153261954Y-71124683D01*
X153266114Y-71127883D01*
X153274461Y-71133715D01*
X153279538Y-71137144D01*
X153295269Y-71147841D01*
X153312821Y-71160078D01*
X153330060Y-71172338D01*
X153344850Y-71183103D01*
X153354230Y-71190203D01*
X153371135Y-71202951D01*
X153394407Y-71219641D01*
X153423781Y-71240085D01*
X153458988Y-71264094D01*
X153461246Y-71265621D01*
X153503119Y-71291738D01*
X153544414Y-71313278D01*
X153583733Y-71329567D01*
X153611329Y-71337994D01*
X153644289Y-71342302D01*
X153679629Y-71339411D01*
X153716845Y-71329384D01*
X153735268Y-71322037D01*
X153774185Y-71302601D01*
X153806774Y-71280869D01*
X153834021Y-71255762D01*
X153856915Y-71226203D01*
X153876441Y-71191115D01*
X153893586Y-71149422D01*
X153893707Y-71149084D01*
X153905792Y-71114030D01*
X153916006Y-71081094D01*
X153924495Y-71049206D01*
X153931401Y-71017296D01*
X153936871Y-70984294D01*
X153941049Y-70949132D01*
X153944080Y-70910739D01*
X153946108Y-70868046D01*
X153947278Y-70819983D01*
X153947734Y-70765481D01*
X153947754Y-70749539D01*
X153947679Y-70715467D01*
X153947466Y-70678619D01*
X153947128Y-70639796D01*
X153946682Y-70599799D01*
X153946143Y-70559430D01*
X153945525Y-70519492D01*
X153944844Y-70480786D01*
X153944115Y-70444114D01*
X153943354Y-70410277D01*
X153942575Y-70380078D01*
X153941793Y-70354318D01*
X153941025Y-70333799D01*
X153940285Y-70319323D01*
X153939587Y-70311691D01*
X153939448Y-70311032D01*
X153938998Y-70304567D01*
X153939187Y-70291829D01*
X153939913Y-70274323D01*
X153941076Y-70253556D01*
X153942573Y-70231035D01*
X153944303Y-70208266D01*
X153946166Y-70186754D01*
X153948060Y-70168008D01*
X153949882Y-70153532D01*
X153950169Y-70151662D01*
X153961111Y-70090926D01*
X153974694Y-70029248D01*
X153990624Y-69967360D01*
X154008606Y-69905995D01*
X154028347Y-69845888D01*
X154049552Y-69787770D01*
X154071926Y-69732376D01*
X154095175Y-69680438D01*
X154119005Y-69632690D01*
X154143121Y-69589864D01*
X154167229Y-69552695D01*
X154191035Y-69521915D01*
X154211523Y-69500675D01*
X154225805Y-69488001D01*
X154236844Y-69479107D01*
X154246980Y-69472305D01*
X154258551Y-69465905D01*
X154262323Y-69463976D01*
X154292303Y-69452062D01*
X154323913Y-69446140D01*
X154358200Y-69446160D01*
D12*
%TO.C,U1*%
X152625000Y-93030000D02*
X156485000Y-93030000D01*
X156485000Y-93030000D02*
X156485000Y-92785000D01*
X152625000Y-93030000D02*
X148765000Y-93030000D01*
X148765000Y-93030000D02*
X148765000Y-92785000D01*
X152625000Y-74910000D02*
X156485000Y-74910000D01*
X156485000Y-74910000D02*
X156485000Y-75155000D01*
X152625000Y-74910000D02*
X148765000Y-74910000D01*
X148765000Y-74910000D02*
X148765000Y-75155000D01*
X148765000Y-75155000D02*
X146950000Y-75155000D01*
%TO.C,J1*%
X153620000Y-68670000D02*
G75*
G02*
X151620000Y-68670000I-1000000J0D01*
G01*
X151620000Y-68670000D02*
X146160000Y-68670000D01*
X146160000Y-68670000D02*
X146160000Y-99270000D01*
X146160000Y-99270000D02*
X159080000Y-99270000D01*
X159080000Y-99270000D02*
X159080000Y-68670000D01*
X159080000Y-68670000D02*
X153620000Y-68670000D01*
%TD*%
M02*
