%TF.GenerationSoftware,KiCad,Pcbnew,(5.1.6)-1*%
%TF.CreationDate,2021-05-02T13:18:50+02:00*%
%TF.ProjectId,cal-fram,63616c2d-6672-4616-9d2e-6b696361645f,rev?*%
%TF.SameCoordinates,Original*%
%TF.FileFunction,Paste,Top*%
%TF.FilePolarity,Positive*%
%FSLAX46Y46*%
G04 Gerber Fmt 4.6, Leading zero omitted, Abs format (unit mm)*
G04 Created by KiCad (PCBNEW (5.1.6)-1) date 2021-05-02 13:18:50*
%MOMM*%
%LPD*%
G01*
G04 APERTURE LIST*
G04 APERTURE END LIST*
%TO.C,U1*%
G36*
G01*
X156250000Y-75865000D02*
X156250000Y-75565000D01*
G75*
G02*
X156400000Y-75415000I150000J0D01*
G01*
X158150000Y-75415000D01*
G75*
G02*
X158300000Y-75565000I0J-150000D01*
G01*
X158300000Y-75865000D01*
G75*
G02*
X158150000Y-76015000I-150000J0D01*
G01*
X156400000Y-76015000D01*
G75*
G02*
X156250000Y-75865000I0J150000D01*
G01*
G37*
G36*
G01*
X156250000Y-77135000D02*
X156250000Y-76835000D01*
G75*
G02*
X156400000Y-76685000I150000J0D01*
G01*
X158150000Y-76685000D01*
G75*
G02*
X158300000Y-76835000I0J-150000D01*
G01*
X158300000Y-77135000D01*
G75*
G02*
X158150000Y-77285000I-150000J0D01*
G01*
X156400000Y-77285000D01*
G75*
G02*
X156250000Y-77135000I0J150000D01*
G01*
G37*
G36*
G01*
X156250000Y-78405000D02*
X156250000Y-78105000D01*
G75*
G02*
X156400000Y-77955000I150000J0D01*
G01*
X158150000Y-77955000D01*
G75*
G02*
X158300000Y-78105000I0J-150000D01*
G01*
X158300000Y-78405000D01*
G75*
G02*
X158150000Y-78555000I-150000J0D01*
G01*
X156400000Y-78555000D01*
G75*
G02*
X156250000Y-78405000I0J150000D01*
G01*
G37*
G36*
G01*
X156250000Y-79675000D02*
X156250000Y-79375000D01*
G75*
G02*
X156400000Y-79225000I150000J0D01*
G01*
X158150000Y-79225000D01*
G75*
G02*
X158300000Y-79375000I0J-150000D01*
G01*
X158300000Y-79675000D01*
G75*
G02*
X158150000Y-79825000I-150000J0D01*
G01*
X156400000Y-79825000D01*
G75*
G02*
X156250000Y-79675000I0J150000D01*
G01*
G37*
G36*
G01*
X156250000Y-80945000D02*
X156250000Y-80645000D01*
G75*
G02*
X156400000Y-80495000I150000J0D01*
G01*
X158150000Y-80495000D01*
G75*
G02*
X158300000Y-80645000I0J-150000D01*
G01*
X158300000Y-80945000D01*
G75*
G02*
X158150000Y-81095000I-150000J0D01*
G01*
X156400000Y-81095000D01*
G75*
G02*
X156250000Y-80945000I0J150000D01*
G01*
G37*
G36*
G01*
X156250000Y-82215000D02*
X156250000Y-81915000D01*
G75*
G02*
X156400000Y-81765000I150000J0D01*
G01*
X158150000Y-81765000D01*
G75*
G02*
X158300000Y-81915000I0J-150000D01*
G01*
X158300000Y-82215000D01*
G75*
G02*
X158150000Y-82365000I-150000J0D01*
G01*
X156400000Y-82365000D01*
G75*
G02*
X156250000Y-82215000I0J150000D01*
G01*
G37*
G36*
G01*
X156250000Y-83485000D02*
X156250000Y-83185000D01*
G75*
G02*
X156400000Y-83035000I150000J0D01*
G01*
X158150000Y-83035000D01*
G75*
G02*
X158300000Y-83185000I0J-150000D01*
G01*
X158300000Y-83485000D01*
G75*
G02*
X158150000Y-83635000I-150000J0D01*
G01*
X156400000Y-83635000D01*
G75*
G02*
X156250000Y-83485000I0J150000D01*
G01*
G37*
G36*
G01*
X156250000Y-84755000D02*
X156250000Y-84455000D01*
G75*
G02*
X156400000Y-84305000I150000J0D01*
G01*
X158150000Y-84305000D01*
G75*
G02*
X158300000Y-84455000I0J-150000D01*
G01*
X158300000Y-84755000D01*
G75*
G02*
X158150000Y-84905000I-150000J0D01*
G01*
X156400000Y-84905000D01*
G75*
G02*
X156250000Y-84755000I0J150000D01*
G01*
G37*
G36*
G01*
X156250000Y-86025000D02*
X156250000Y-85725000D01*
G75*
G02*
X156400000Y-85575000I150000J0D01*
G01*
X158150000Y-85575000D01*
G75*
G02*
X158300000Y-85725000I0J-150000D01*
G01*
X158300000Y-86025000D01*
G75*
G02*
X158150000Y-86175000I-150000J0D01*
G01*
X156400000Y-86175000D01*
G75*
G02*
X156250000Y-86025000I0J150000D01*
G01*
G37*
G36*
G01*
X156250000Y-87295000D02*
X156250000Y-86995000D01*
G75*
G02*
X156400000Y-86845000I150000J0D01*
G01*
X158150000Y-86845000D01*
G75*
G02*
X158300000Y-86995000I0J-150000D01*
G01*
X158300000Y-87295000D01*
G75*
G02*
X158150000Y-87445000I-150000J0D01*
G01*
X156400000Y-87445000D01*
G75*
G02*
X156250000Y-87295000I0J150000D01*
G01*
G37*
G36*
G01*
X156250000Y-88565000D02*
X156250000Y-88265000D01*
G75*
G02*
X156400000Y-88115000I150000J0D01*
G01*
X158150000Y-88115000D01*
G75*
G02*
X158300000Y-88265000I0J-150000D01*
G01*
X158300000Y-88565000D01*
G75*
G02*
X158150000Y-88715000I-150000J0D01*
G01*
X156400000Y-88715000D01*
G75*
G02*
X156250000Y-88565000I0J150000D01*
G01*
G37*
G36*
G01*
X156250000Y-89835000D02*
X156250000Y-89535000D01*
G75*
G02*
X156400000Y-89385000I150000J0D01*
G01*
X158150000Y-89385000D01*
G75*
G02*
X158300000Y-89535000I0J-150000D01*
G01*
X158300000Y-89835000D01*
G75*
G02*
X158150000Y-89985000I-150000J0D01*
G01*
X156400000Y-89985000D01*
G75*
G02*
X156250000Y-89835000I0J150000D01*
G01*
G37*
G36*
G01*
X156250000Y-91105000D02*
X156250000Y-90805000D01*
G75*
G02*
X156400000Y-90655000I150000J0D01*
G01*
X158150000Y-90655000D01*
G75*
G02*
X158300000Y-90805000I0J-150000D01*
G01*
X158300000Y-91105000D01*
G75*
G02*
X158150000Y-91255000I-150000J0D01*
G01*
X156400000Y-91255000D01*
G75*
G02*
X156250000Y-91105000I0J150000D01*
G01*
G37*
G36*
G01*
X156250000Y-92375000D02*
X156250000Y-92075000D01*
G75*
G02*
X156400000Y-91925000I150000J0D01*
G01*
X158150000Y-91925000D01*
G75*
G02*
X158300000Y-92075000I0J-150000D01*
G01*
X158300000Y-92375000D01*
G75*
G02*
X158150000Y-92525000I-150000J0D01*
G01*
X156400000Y-92525000D01*
G75*
G02*
X156250000Y-92375000I0J150000D01*
G01*
G37*
G36*
G01*
X146950000Y-92375000D02*
X146950000Y-92075000D01*
G75*
G02*
X147100000Y-91925000I150000J0D01*
G01*
X148850000Y-91925000D01*
G75*
G02*
X149000000Y-92075000I0J-150000D01*
G01*
X149000000Y-92375000D01*
G75*
G02*
X148850000Y-92525000I-150000J0D01*
G01*
X147100000Y-92525000D01*
G75*
G02*
X146950000Y-92375000I0J150000D01*
G01*
G37*
G36*
G01*
X146950000Y-91105000D02*
X146950000Y-90805000D01*
G75*
G02*
X147100000Y-90655000I150000J0D01*
G01*
X148850000Y-90655000D01*
G75*
G02*
X149000000Y-90805000I0J-150000D01*
G01*
X149000000Y-91105000D01*
G75*
G02*
X148850000Y-91255000I-150000J0D01*
G01*
X147100000Y-91255000D01*
G75*
G02*
X146950000Y-91105000I0J150000D01*
G01*
G37*
G36*
G01*
X146950000Y-89835000D02*
X146950000Y-89535000D01*
G75*
G02*
X147100000Y-89385000I150000J0D01*
G01*
X148850000Y-89385000D01*
G75*
G02*
X149000000Y-89535000I0J-150000D01*
G01*
X149000000Y-89835000D01*
G75*
G02*
X148850000Y-89985000I-150000J0D01*
G01*
X147100000Y-89985000D01*
G75*
G02*
X146950000Y-89835000I0J150000D01*
G01*
G37*
G36*
G01*
X146950000Y-88565000D02*
X146950000Y-88265000D01*
G75*
G02*
X147100000Y-88115000I150000J0D01*
G01*
X148850000Y-88115000D01*
G75*
G02*
X149000000Y-88265000I0J-150000D01*
G01*
X149000000Y-88565000D01*
G75*
G02*
X148850000Y-88715000I-150000J0D01*
G01*
X147100000Y-88715000D01*
G75*
G02*
X146950000Y-88565000I0J150000D01*
G01*
G37*
G36*
G01*
X146950000Y-87295000D02*
X146950000Y-86995000D01*
G75*
G02*
X147100000Y-86845000I150000J0D01*
G01*
X148850000Y-86845000D01*
G75*
G02*
X149000000Y-86995000I0J-150000D01*
G01*
X149000000Y-87295000D01*
G75*
G02*
X148850000Y-87445000I-150000J0D01*
G01*
X147100000Y-87445000D01*
G75*
G02*
X146950000Y-87295000I0J150000D01*
G01*
G37*
G36*
G01*
X146950000Y-86025000D02*
X146950000Y-85725000D01*
G75*
G02*
X147100000Y-85575000I150000J0D01*
G01*
X148850000Y-85575000D01*
G75*
G02*
X149000000Y-85725000I0J-150000D01*
G01*
X149000000Y-86025000D01*
G75*
G02*
X148850000Y-86175000I-150000J0D01*
G01*
X147100000Y-86175000D01*
G75*
G02*
X146950000Y-86025000I0J150000D01*
G01*
G37*
G36*
G01*
X146950000Y-84755000D02*
X146950000Y-84455000D01*
G75*
G02*
X147100000Y-84305000I150000J0D01*
G01*
X148850000Y-84305000D01*
G75*
G02*
X149000000Y-84455000I0J-150000D01*
G01*
X149000000Y-84755000D01*
G75*
G02*
X148850000Y-84905000I-150000J0D01*
G01*
X147100000Y-84905000D01*
G75*
G02*
X146950000Y-84755000I0J150000D01*
G01*
G37*
G36*
G01*
X146950000Y-83485000D02*
X146950000Y-83185000D01*
G75*
G02*
X147100000Y-83035000I150000J0D01*
G01*
X148850000Y-83035000D01*
G75*
G02*
X149000000Y-83185000I0J-150000D01*
G01*
X149000000Y-83485000D01*
G75*
G02*
X148850000Y-83635000I-150000J0D01*
G01*
X147100000Y-83635000D01*
G75*
G02*
X146950000Y-83485000I0J150000D01*
G01*
G37*
G36*
G01*
X146950000Y-82215000D02*
X146950000Y-81915000D01*
G75*
G02*
X147100000Y-81765000I150000J0D01*
G01*
X148850000Y-81765000D01*
G75*
G02*
X149000000Y-81915000I0J-150000D01*
G01*
X149000000Y-82215000D01*
G75*
G02*
X148850000Y-82365000I-150000J0D01*
G01*
X147100000Y-82365000D01*
G75*
G02*
X146950000Y-82215000I0J150000D01*
G01*
G37*
G36*
G01*
X146950000Y-80945000D02*
X146950000Y-80645000D01*
G75*
G02*
X147100000Y-80495000I150000J0D01*
G01*
X148850000Y-80495000D01*
G75*
G02*
X149000000Y-80645000I0J-150000D01*
G01*
X149000000Y-80945000D01*
G75*
G02*
X148850000Y-81095000I-150000J0D01*
G01*
X147100000Y-81095000D01*
G75*
G02*
X146950000Y-80945000I0J150000D01*
G01*
G37*
G36*
G01*
X146950000Y-79675000D02*
X146950000Y-79375000D01*
G75*
G02*
X147100000Y-79225000I150000J0D01*
G01*
X148850000Y-79225000D01*
G75*
G02*
X149000000Y-79375000I0J-150000D01*
G01*
X149000000Y-79675000D01*
G75*
G02*
X148850000Y-79825000I-150000J0D01*
G01*
X147100000Y-79825000D01*
G75*
G02*
X146950000Y-79675000I0J150000D01*
G01*
G37*
G36*
G01*
X146950000Y-78405000D02*
X146950000Y-78105000D01*
G75*
G02*
X147100000Y-77955000I150000J0D01*
G01*
X148850000Y-77955000D01*
G75*
G02*
X149000000Y-78105000I0J-150000D01*
G01*
X149000000Y-78405000D01*
G75*
G02*
X148850000Y-78555000I-150000J0D01*
G01*
X147100000Y-78555000D01*
G75*
G02*
X146950000Y-78405000I0J150000D01*
G01*
G37*
G36*
G01*
X146950000Y-77135000D02*
X146950000Y-76835000D01*
G75*
G02*
X147100000Y-76685000I150000J0D01*
G01*
X148850000Y-76685000D01*
G75*
G02*
X149000000Y-76835000I0J-150000D01*
G01*
X149000000Y-77135000D01*
G75*
G02*
X148850000Y-77285000I-150000J0D01*
G01*
X147100000Y-77285000D01*
G75*
G02*
X146950000Y-77135000I0J150000D01*
G01*
G37*
G36*
G01*
X146950000Y-75865000D02*
X146950000Y-75565000D01*
G75*
G02*
X147100000Y-75415000I150000J0D01*
G01*
X148850000Y-75415000D01*
G75*
G02*
X149000000Y-75565000I0J-150000D01*
G01*
X149000000Y-75865000D01*
G75*
G02*
X148850000Y-76015000I-150000J0D01*
G01*
X147100000Y-76015000D01*
G75*
G02*
X146950000Y-75865000I0J150000D01*
G01*
G37*
%TD*%
M02*
