%TF.GenerationSoftware,KiCad,Pcbnew,(5.1.6)-1*%
%TF.CreationDate,2021-05-02T13:18:50+02:00*%
%TF.ProjectId,cal-fram,63616c2d-6672-4616-9d2e-6b696361645f,rev?*%
%TF.SameCoordinates,Original*%
%TF.FileFunction,Soldermask,Top*%
%TF.FilePolarity,Negative*%
%FSLAX46Y46*%
G04 Gerber Fmt 4.6, Leading zero omitted, Abs format (unit mm)*
G04 Created by KiCad (PCBNEW (5.1.6)-1) date 2021-05-02 13:18:50*
%MOMM*%
%LPD*%
G01*
G04 APERTURE LIST*
%ADD10O,1.700000X1.700000*%
%ADD11R,1.700000X1.700000*%
G04 APERTURE END LIST*
%TO.C,U1*%
G36*
G01*
X156200000Y-75890000D02*
X156200000Y-75540000D01*
G75*
G02*
X156375000Y-75365000I175000J0D01*
G01*
X158175000Y-75365000D01*
G75*
G02*
X158350000Y-75540000I0J-175000D01*
G01*
X158350000Y-75890000D01*
G75*
G02*
X158175000Y-76065000I-175000J0D01*
G01*
X156375000Y-76065000D01*
G75*
G02*
X156200000Y-75890000I0J175000D01*
G01*
G37*
G36*
G01*
X156200000Y-77160000D02*
X156200000Y-76810000D01*
G75*
G02*
X156375000Y-76635000I175000J0D01*
G01*
X158175000Y-76635000D01*
G75*
G02*
X158350000Y-76810000I0J-175000D01*
G01*
X158350000Y-77160000D01*
G75*
G02*
X158175000Y-77335000I-175000J0D01*
G01*
X156375000Y-77335000D01*
G75*
G02*
X156200000Y-77160000I0J175000D01*
G01*
G37*
G36*
G01*
X156200000Y-78430000D02*
X156200000Y-78080000D01*
G75*
G02*
X156375000Y-77905000I175000J0D01*
G01*
X158175000Y-77905000D01*
G75*
G02*
X158350000Y-78080000I0J-175000D01*
G01*
X158350000Y-78430000D01*
G75*
G02*
X158175000Y-78605000I-175000J0D01*
G01*
X156375000Y-78605000D01*
G75*
G02*
X156200000Y-78430000I0J175000D01*
G01*
G37*
G36*
G01*
X156200000Y-79700000D02*
X156200000Y-79350000D01*
G75*
G02*
X156375000Y-79175000I175000J0D01*
G01*
X158175000Y-79175000D01*
G75*
G02*
X158350000Y-79350000I0J-175000D01*
G01*
X158350000Y-79700000D01*
G75*
G02*
X158175000Y-79875000I-175000J0D01*
G01*
X156375000Y-79875000D01*
G75*
G02*
X156200000Y-79700000I0J175000D01*
G01*
G37*
G36*
G01*
X156200000Y-80970000D02*
X156200000Y-80620000D01*
G75*
G02*
X156375000Y-80445000I175000J0D01*
G01*
X158175000Y-80445000D01*
G75*
G02*
X158350000Y-80620000I0J-175000D01*
G01*
X158350000Y-80970000D01*
G75*
G02*
X158175000Y-81145000I-175000J0D01*
G01*
X156375000Y-81145000D01*
G75*
G02*
X156200000Y-80970000I0J175000D01*
G01*
G37*
G36*
G01*
X156200000Y-82240000D02*
X156200000Y-81890000D01*
G75*
G02*
X156375000Y-81715000I175000J0D01*
G01*
X158175000Y-81715000D01*
G75*
G02*
X158350000Y-81890000I0J-175000D01*
G01*
X158350000Y-82240000D01*
G75*
G02*
X158175000Y-82415000I-175000J0D01*
G01*
X156375000Y-82415000D01*
G75*
G02*
X156200000Y-82240000I0J175000D01*
G01*
G37*
G36*
G01*
X156200000Y-83510000D02*
X156200000Y-83160000D01*
G75*
G02*
X156375000Y-82985000I175000J0D01*
G01*
X158175000Y-82985000D01*
G75*
G02*
X158350000Y-83160000I0J-175000D01*
G01*
X158350000Y-83510000D01*
G75*
G02*
X158175000Y-83685000I-175000J0D01*
G01*
X156375000Y-83685000D01*
G75*
G02*
X156200000Y-83510000I0J175000D01*
G01*
G37*
G36*
G01*
X156200000Y-84780000D02*
X156200000Y-84430000D01*
G75*
G02*
X156375000Y-84255000I175000J0D01*
G01*
X158175000Y-84255000D01*
G75*
G02*
X158350000Y-84430000I0J-175000D01*
G01*
X158350000Y-84780000D01*
G75*
G02*
X158175000Y-84955000I-175000J0D01*
G01*
X156375000Y-84955000D01*
G75*
G02*
X156200000Y-84780000I0J175000D01*
G01*
G37*
G36*
G01*
X156200000Y-86050000D02*
X156200000Y-85700000D01*
G75*
G02*
X156375000Y-85525000I175000J0D01*
G01*
X158175000Y-85525000D01*
G75*
G02*
X158350000Y-85700000I0J-175000D01*
G01*
X158350000Y-86050000D01*
G75*
G02*
X158175000Y-86225000I-175000J0D01*
G01*
X156375000Y-86225000D01*
G75*
G02*
X156200000Y-86050000I0J175000D01*
G01*
G37*
G36*
G01*
X156200000Y-87320000D02*
X156200000Y-86970000D01*
G75*
G02*
X156375000Y-86795000I175000J0D01*
G01*
X158175000Y-86795000D01*
G75*
G02*
X158350000Y-86970000I0J-175000D01*
G01*
X158350000Y-87320000D01*
G75*
G02*
X158175000Y-87495000I-175000J0D01*
G01*
X156375000Y-87495000D01*
G75*
G02*
X156200000Y-87320000I0J175000D01*
G01*
G37*
G36*
G01*
X156200000Y-88590000D02*
X156200000Y-88240000D01*
G75*
G02*
X156375000Y-88065000I175000J0D01*
G01*
X158175000Y-88065000D01*
G75*
G02*
X158350000Y-88240000I0J-175000D01*
G01*
X158350000Y-88590000D01*
G75*
G02*
X158175000Y-88765000I-175000J0D01*
G01*
X156375000Y-88765000D01*
G75*
G02*
X156200000Y-88590000I0J175000D01*
G01*
G37*
G36*
G01*
X156200000Y-89860000D02*
X156200000Y-89510000D01*
G75*
G02*
X156375000Y-89335000I175000J0D01*
G01*
X158175000Y-89335000D01*
G75*
G02*
X158350000Y-89510000I0J-175000D01*
G01*
X158350000Y-89860000D01*
G75*
G02*
X158175000Y-90035000I-175000J0D01*
G01*
X156375000Y-90035000D01*
G75*
G02*
X156200000Y-89860000I0J175000D01*
G01*
G37*
G36*
G01*
X156200000Y-91130000D02*
X156200000Y-90780000D01*
G75*
G02*
X156375000Y-90605000I175000J0D01*
G01*
X158175000Y-90605000D01*
G75*
G02*
X158350000Y-90780000I0J-175000D01*
G01*
X158350000Y-91130000D01*
G75*
G02*
X158175000Y-91305000I-175000J0D01*
G01*
X156375000Y-91305000D01*
G75*
G02*
X156200000Y-91130000I0J175000D01*
G01*
G37*
G36*
G01*
X156200000Y-92400000D02*
X156200000Y-92050000D01*
G75*
G02*
X156375000Y-91875000I175000J0D01*
G01*
X158175000Y-91875000D01*
G75*
G02*
X158350000Y-92050000I0J-175000D01*
G01*
X158350000Y-92400000D01*
G75*
G02*
X158175000Y-92575000I-175000J0D01*
G01*
X156375000Y-92575000D01*
G75*
G02*
X156200000Y-92400000I0J175000D01*
G01*
G37*
G36*
G01*
X146900000Y-92400000D02*
X146900000Y-92050000D01*
G75*
G02*
X147075000Y-91875000I175000J0D01*
G01*
X148875000Y-91875000D01*
G75*
G02*
X149050000Y-92050000I0J-175000D01*
G01*
X149050000Y-92400000D01*
G75*
G02*
X148875000Y-92575000I-175000J0D01*
G01*
X147075000Y-92575000D01*
G75*
G02*
X146900000Y-92400000I0J175000D01*
G01*
G37*
G36*
G01*
X146900000Y-91130000D02*
X146900000Y-90780000D01*
G75*
G02*
X147075000Y-90605000I175000J0D01*
G01*
X148875000Y-90605000D01*
G75*
G02*
X149050000Y-90780000I0J-175000D01*
G01*
X149050000Y-91130000D01*
G75*
G02*
X148875000Y-91305000I-175000J0D01*
G01*
X147075000Y-91305000D01*
G75*
G02*
X146900000Y-91130000I0J175000D01*
G01*
G37*
G36*
G01*
X146900000Y-89860000D02*
X146900000Y-89510000D01*
G75*
G02*
X147075000Y-89335000I175000J0D01*
G01*
X148875000Y-89335000D01*
G75*
G02*
X149050000Y-89510000I0J-175000D01*
G01*
X149050000Y-89860000D01*
G75*
G02*
X148875000Y-90035000I-175000J0D01*
G01*
X147075000Y-90035000D01*
G75*
G02*
X146900000Y-89860000I0J175000D01*
G01*
G37*
G36*
G01*
X146900000Y-88590000D02*
X146900000Y-88240000D01*
G75*
G02*
X147075000Y-88065000I175000J0D01*
G01*
X148875000Y-88065000D01*
G75*
G02*
X149050000Y-88240000I0J-175000D01*
G01*
X149050000Y-88590000D01*
G75*
G02*
X148875000Y-88765000I-175000J0D01*
G01*
X147075000Y-88765000D01*
G75*
G02*
X146900000Y-88590000I0J175000D01*
G01*
G37*
G36*
G01*
X146900000Y-87320000D02*
X146900000Y-86970000D01*
G75*
G02*
X147075000Y-86795000I175000J0D01*
G01*
X148875000Y-86795000D01*
G75*
G02*
X149050000Y-86970000I0J-175000D01*
G01*
X149050000Y-87320000D01*
G75*
G02*
X148875000Y-87495000I-175000J0D01*
G01*
X147075000Y-87495000D01*
G75*
G02*
X146900000Y-87320000I0J175000D01*
G01*
G37*
G36*
G01*
X146900000Y-86050000D02*
X146900000Y-85700000D01*
G75*
G02*
X147075000Y-85525000I175000J0D01*
G01*
X148875000Y-85525000D01*
G75*
G02*
X149050000Y-85700000I0J-175000D01*
G01*
X149050000Y-86050000D01*
G75*
G02*
X148875000Y-86225000I-175000J0D01*
G01*
X147075000Y-86225000D01*
G75*
G02*
X146900000Y-86050000I0J175000D01*
G01*
G37*
G36*
G01*
X146900000Y-84780000D02*
X146900000Y-84430000D01*
G75*
G02*
X147075000Y-84255000I175000J0D01*
G01*
X148875000Y-84255000D01*
G75*
G02*
X149050000Y-84430000I0J-175000D01*
G01*
X149050000Y-84780000D01*
G75*
G02*
X148875000Y-84955000I-175000J0D01*
G01*
X147075000Y-84955000D01*
G75*
G02*
X146900000Y-84780000I0J175000D01*
G01*
G37*
G36*
G01*
X146900000Y-83510000D02*
X146900000Y-83160000D01*
G75*
G02*
X147075000Y-82985000I175000J0D01*
G01*
X148875000Y-82985000D01*
G75*
G02*
X149050000Y-83160000I0J-175000D01*
G01*
X149050000Y-83510000D01*
G75*
G02*
X148875000Y-83685000I-175000J0D01*
G01*
X147075000Y-83685000D01*
G75*
G02*
X146900000Y-83510000I0J175000D01*
G01*
G37*
G36*
G01*
X146900000Y-82240000D02*
X146900000Y-81890000D01*
G75*
G02*
X147075000Y-81715000I175000J0D01*
G01*
X148875000Y-81715000D01*
G75*
G02*
X149050000Y-81890000I0J-175000D01*
G01*
X149050000Y-82240000D01*
G75*
G02*
X148875000Y-82415000I-175000J0D01*
G01*
X147075000Y-82415000D01*
G75*
G02*
X146900000Y-82240000I0J175000D01*
G01*
G37*
G36*
G01*
X146900000Y-80970000D02*
X146900000Y-80620000D01*
G75*
G02*
X147075000Y-80445000I175000J0D01*
G01*
X148875000Y-80445000D01*
G75*
G02*
X149050000Y-80620000I0J-175000D01*
G01*
X149050000Y-80970000D01*
G75*
G02*
X148875000Y-81145000I-175000J0D01*
G01*
X147075000Y-81145000D01*
G75*
G02*
X146900000Y-80970000I0J175000D01*
G01*
G37*
G36*
G01*
X146900000Y-79700000D02*
X146900000Y-79350000D01*
G75*
G02*
X147075000Y-79175000I175000J0D01*
G01*
X148875000Y-79175000D01*
G75*
G02*
X149050000Y-79350000I0J-175000D01*
G01*
X149050000Y-79700000D01*
G75*
G02*
X148875000Y-79875000I-175000J0D01*
G01*
X147075000Y-79875000D01*
G75*
G02*
X146900000Y-79700000I0J175000D01*
G01*
G37*
G36*
G01*
X146900000Y-78430000D02*
X146900000Y-78080000D01*
G75*
G02*
X147075000Y-77905000I175000J0D01*
G01*
X148875000Y-77905000D01*
G75*
G02*
X149050000Y-78080000I0J-175000D01*
G01*
X149050000Y-78430000D01*
G75*
G02*
X148875000Y-78605000I-175000J0D01*
G01*
X147075000Y-78605000D01*
G75*
G02*
X146900000Y-78430000I0J175000D01*
G01*
G37*
G36*
G01*
X146900000Y-77160000D02*
X146900000Y-76810000D01*
G75*
G02*
X147075000Y-76635000I175000J0D01*
G01*
X148875000Y-76635000D01*
G75*
G02*
X149050000Y-76810000I0J-175000D01*
G01*
X149050000Y-77160000D01*
G75*
G02*
X148875000Y-77335000I-175000J0D01*
G01*
X147075000Y-77335000D01*
G75*
G02*
X146900000Y-77160000I0J175000D01*
G01*
G37*
G36*
G01*
X146900000Y-75890000D02*
X146900000Y-75540000D01*
G75*
G02*
X147075000Y-75365000I175000J0D01*
G01*
X148875000Y-75365000D01*
G75*
G02*
X149050000Y-75540000I0J-175000D01*
G01*
X149050000Y-75890000D01*
G75*
G02*
X148875000Y-76065000I-175000J0D01*
G01*
X147075000Y-76065000D01*
G75*
G02*
X146900000Y-75890000I0J175000D01*
G01*
G37*
%TD*%
D10*
%TO.C,J1*%
X160240000Y-70000000D03*
X145000000Y-97940000D03*
X160240000Y-72540000D03*
X145000000Y-95400000D03*
X160240000Y-75080000D03*
X145000000Y-92860000D03*
X160240000Y-77620000D03*
X145000000Y-90320000D03*
X160240000Y-80160000D03*
X145000000Y-87780000D03*
X160240000Y-82700000D03*
X145000000Y-85240000D03*
X160240000Y-85240000D03*
X145000000Y-82700000D03*
X160240000Y-87780000D03*
X145000000Y-80160000D03*
X160240000Y-90320000D03*
X145000000Y-77620000D03*
X160240000Y-92860000D03*
X145000000Y-75080000D03*
X160240000Y-95400000D03*
X145000000Y-72540000D03*
X160240000Y-97940000D03*
D11*
X145000000Y-70000000D03*
%TD*%
M02*
