M48
; DRILL file {KiCad (5.1.6)-1} date 05/02/21 13:15:10
; FORMAT={-:-/ absolute / inch / decimal}
; #@! TF.CreationDate,2021-05-02T13:15:10+02:00
; #@! TF.GenerationSoftware,Kicad,Pcbnew,(5.1.6)-1
FMAT,2
INCH
T1C0.0157
T2C0.0315
%
G90
G05
T1
X5.9055Y-2.9035
X5.9055Y-3.0315
X5.9055Y-3.2283
X5.9055Y-3.6319
X6.1122Y-3.1299
X6.1122Y-3.1791
X6.1122Y-3.2283
X6.122Y-3.5827
T2
X5.7087Y-2.7559
X5.7087Y-2.8559
X5.7087Y-2.9559
X5.7087Y-3.0559
X5.7087Y-3.1559
X5.7087Y-3.2559
X5.7087Y-3.3559
X5.7087Y-3.4559
X5.7087Y-3.5559
X5.7087Y-3.6559
X5.7087Y-3.7559
X5.7087Y-3.8559
X6.3087Y-2.7559
X6.3087Y-2.8559
X6.3087Y-2.9559
X6.3087Y-3.0559
X6.3087Y-3.1559
X6.3087Y-3.2559
X6.3087Y-3.3559
X6.3087Y-3.4559
X6.3087Y-3.5559
X6.3087Y-3.6559
X6.3087Y-3.7559
X6.3087Y-3.8559
T0
M30
